<svg xmlns="http://www.w3.org/2000/svg" version="1.1" viewBox="0 0 850 577" height="577pt" width="850pt">
<g id="#ffffffff">
<path d="M 18.26 0.00 L 495.40 0.00 C 499.84 0.56 504.83 0.62 508.50 3.52 C 511.51 6.06 511.52 10.33 511.58 13.95 C 511.56 65.24 511.62 116.53 511.55 167.82 C 518.30 158.26 524.68 148.35 532.83 139.88 C 552.53 118.64 578.89 104.41 606.68 96.82 C 634.15 89.09 663.07 87.39 691.43 89.87 C 723.59 92.47 755.71 101.37 782.99 118.96 C 809.01 135.57 831.31 159.47 841.83 188.87 C 847.23 203.49 849.44 219.09 850.00 234.61 L 850.00 243.48 C 849.59 264.27 844.76 285.00 835.65 303.71 C 823.28 329.43 803.19 350.57 781.01 368.15 C 751.60 391.34 717.96 408.18 685.38 426.32 C 679.78 429.53 673.74 432.17 669.05 436.74 C 669.20 437.16 669.50 438.00 669.65 438.42 C 687.40 439.31 705.21 438.66 722.99 438.87 C 760.00 438.86 797.01 438.89 834.02 438.85 C 836.94 438.87 840.35 439.18 842.33 441.62 C 844.03 443.67 843.84 446.50 843.91 449.00 C 843.84 489.36 844.08 529.72 843.81 570.08 C 844.01 574.24 839.90 576.25 836.44 577.00 L 19.98 577.00 C 15.33 576.52 10.45 576.01 6.24 573.80 C 2.43 571.71 0.98 567.14 1.14 563.03 C 1.14 496.01 0.50 429.00 0.10 361.99 C 0.08 357.44 1.17 352.67 4.20 349.14 C 7.58 344.90 12.83 343.01 17.48 340.56 C 81.54 308.23 145.58 275.83 209.53 243.28 C 211.93 242.27 213.81 240.46 215.44 238.47 C 213.35 236.55 211.19 234.03 208.05 234.28 C 145.70 234.36 83.35 234.29 20.99 234.20 C 15.39 234.20 9.72 233.44 4.43 231.58 C 1.58 230.55 0.25 227.55 0.00 224.72 L 0.00 10.01 C 0.26 7.22 1.42 4.22 4.12 2.97 C 8.57 1.04 13.47 0.44 18.26 0.00 M 657.98 212.98 C 652.60 218.06 650.63 225.87 650.56 233.06 C 650.25 243.73 650.14 254.40 649.78 265.07 C 649.85 268.44 647.71 272.05 644.11 272.39 C 639.74 272.68 635.36 272.18 631.00 272.01 C 591.70 270.31 552.38 269.14 513.06 268.24 C 508.60 267.91 503.96 267.94 499.75 266.31 C 496.08 264.73 495.44 260.36 495.27 256.84 C 495.14 249.19 495.24 241.53 495.24 233.88 C 428.16 268.82 361.20 304.00 294.23 339.16 C 292.21 339.98 290.82 341.67 289.59 343.39 C 291.39 345.05 293.31 347.02 295.98 346.84 C 361.66 346.92 427.35 346.82 493.03 346.90 C 496.99 347.15 501.25 347.16 504.82 349.13 C 507.54 350.69 508.12 354.10 508.10 356.97 C 508.14 375.23 508.11 393.48 508.09 411.74 C 515.98 404.06 523.51 395.99 531.90 388.83 C 546.69 375.67 563.21 364.70 579.45 353.45 C 598.43 340.38 617.55 327.52 636.51 314.42 C 650.76 304.60 664.97 294.50 677.22 282.20 C 686.57 272.82 695.34 261.78 697.69 248.40 C 699.11 239.61 698.29 230.32 695.00 222.02 C 692.24 215.27 685.22 211.66 678.40 210.33 C 671.65 208.74 663.55 208.04 657.98 212.98 Z" opacity="1.00" fill="#ffffff"></path>
</g>
</svg>
