<?xml version="1.0" encoding="UTF-8" standalone="no"?>
<!-- Created with Inkscape (http://www.inkscape.org/) -->

<svg
   xmlns:dc="http://purl.org/dc/elements/1.1/"
   xmlns:cc="http://creativecommons.org/ns#"
   xmlns:rdf="http://www.w3.org/1999/02/22-rdf-syntax-ns#"
   xmlns:svg="http://www.w3.org/2000/svg"
   xmlns="http://www.w3.org/2000/svg"
   xmlns:sodipodi="http://sodipodi.sourceforge.net/DTD/sodipodi-0.dtd"
   xmlns:inkscape="http://www.inkscape.org/namespaces/inkscape"
   width="350.79999"
   height="267.59998"
   viewBox="0 0 92.815833 70.802497"
   version="1.1"
   id="svg11641"
   inkscape:version="0.92.0 r15299"
   sodipodi:docname="picturebox.svg">
  <defs
     id="defs11635">
	
	

		
		
		
		
		
		
		
		
		
		
	
		
		
		
		
	</defs>
  <sodipodi:namedview
     id="base"
     pagecolor="#ffffff"
     bordercolor="#666666"
     borderopacity="1.0"
     inkscape:pageopacity="0.0"
     inkscape:pageshadow="2"
     inkscape:zoom="2.0067771"
     inkscape:cx="174.4"
     inkscape:cy="132.8"
     inkscape:document-units="mm"
     inkscape:current-layer="layer1"
     showgrid="false"
     fit-margin-top="0"
     fit-margin-left="0"
     fit-margin-right="0"
     fit-margin-bottom="0"
     units="px"
     inkscape:window-width="1280"
     inkscape:window-height="744"
     inkscape:window-x="-4"
     inkscape:window-y="-4"
     inkscape:window-maximized="1" />
  <metadata
     id="metadata11638">
    <rdf:RDF>
      <cc:Work
         rdf:about="">
        <dc:format>image/svg+xml</dc:format>
        <dc:type
           rdf:resource="http://purl.org/dc/dcmitype/StillImage" />
        <dc:title></dc:title>
      </cc:Work>
    </rdf:RDF>
  </metadata>
  <g
     inkscape:label="Layer 1"
     inkscape:groupmode="layer"
     id="layer1"
     transform="translate(186.55815,-207.67327)">
    <g
       id="g12044"
       transform="matrix(0.26458333,0,0,0.26458333,-186.29357,207.93785)"
       style="fill:#000000">
	<g
   id="g12020"
   style="fill:#000000">
		<polygon
   id="polygon12012"
   points="45.6,93.6 45.6,8.1 162.5,8.1 162.5,0 45.6,0 37.5,0 37.5,8.1 37.5,93.6 "
   class="st0"
   style="fill:#000000" />

		<polygon
   id="polygon12014"
   points="292.7,8.1 292.7,93.6 300.8,93.6 300.8,8.1 300.8,0 292.7,0 175.8,0 175.8,8.1 "
   class="st0"
   style="fill:#000000" />

		<polygon
   id="polygon12016"
   points="37.5,265.6 45.6,265.6 162.5,265.6 162.5,257.5 45.6,257.5 45.6,172 37.5,172 37.5,257.5 "
   class="st0"
   style="fill:#000000" />

		<polygon
   id="polygon12018"
   points="292.7,265.6 300.8,265.6 300.8,257.5 300.8,172 292.7,172 292.7,257.5 175.8,257.5 175.8,265.6 "
   class="st0"
   style="fill:#000000" />

	</g>

	<g
   id="g12042"
   style="fill:#000000">
		<path
   id="path12022"
   d="M 12,106.9 H 0 v 51.8 H 8.1 V 139.2 H 12 c 4.1,0 7.1,-1.1 9.1,-3.3 2,-2.2 3,-5.4 3,-9.5 v -6.7 c 0,-4.2 -1,-7.4 -3,-9.5 -2,-2.2 -5,-3.3 -9.1,-3.3 z m 4,20 c 0,1.9 -0.3,3.2 -1,3.8 -0.7,0.7 -1.7,1 -3,1 H 8.1 V 114.2 H 12 c 1.3,0 2.3,0.3 3,1 0.7,0.7 1,2 1,3.8 z"
   class="st0"
   inkscape:connector-curvature="0"
   style="fill:#000000" />

		<path
   id="path12024"
   d="m 71.1,106.3 c -4,0 -7,1.1 -9.1,3.4 -2,2.2 -3.1,5.5 -3.1,9.7 v 26.9 c 0,4.2 1,7.4 3.1,9.7 2,2.2 5.1,3.4 9.1,3.4 4,0 7,-1.1 9.1,-3.4 2,-2.2 3.1,-5.5 3.1,-9.7 v -6.9 h -7.7 v 7.4 c 0,1.9 -0.4,3.2 -1.1,3.9 -0.8,0.7 -1.8,1.1 -3.1,1.1 -1.3,0 -2.3,-0.4 -3.1,-1.1 -0.8,-0.7 -1.1,-2 -1.1,-3.9 v -28 c 0,-1.9 0.4,-3.2 1.1,-4 0.8,-0.8 1.8,-1.1 3.1,-1.1 1.3,0 2.3,0.4 3.1,1.1 0.8,0.8 1.1,2.1 1.1,4 v 5.6 h 7.7 v -5 c 0,-4.2 -1,-7.4 -3.1,-9.7 -2.1,-2.3 -5.1,-3.4 -9.1,-3.4 z"
   class="st0"
   inkscape:connector-curvature="0"
   style="fill:#000000" />

		<polygon
   id="polygon12026"
   points="113.2,158.7 113.2,114.3 121.7,114.3 121.7,106.9 96.6,106.9 96.6,114.3 105.1,114.3 105.1,158.7 "
   class="st0"
   style="fill:#000000" />

		<path
   id="path12028"
   d="m 151.6,146.9 c 0,1.9 -0.4,3.2 -1.1,3.9 -0.8,0.7 -1.8,1.1 -3.1,1.1 -1.3,0 -2.3,-0.4 -3.1,-1.1 -0.8,-0.7 -1.1,-2 -1.1,-3.9 v -40 H 135 v 39.4 c 0,4.2 1,7.4 3.1,9.7 2,2.2 5.1,3.4 9.1,3.4 4,0 7,-1.1 9.1,-3.4 2,-2.2 3.1,-5.5 3.1,-9.7 v -39.4 h -7.7 v 40 z"
   class="st0"
   inkscape:connector-curvature="0"
   style="fill:#000000" />

		<path
   id="path12030"
   d="m 197.1,152.4 v -8 c 0,-2.7 -0.4,-5 -1.1,-6.9 -0.8,-1.9 -2.2,-3.3 -4.3,-4.1 3.6,-1.7 5.3,-5.2 5.3,-10.5 v -4.1 c 0,-4 -1,-7 -2.8,-9 -1.9,-2 -5,-3 -9.2,-3 h -12.3 v 51.8 h 8.1 v -21.1 h 2.8 c 1.9,0 3.2,0.5 4.1,1.5 0.8,1 1.3,2.7 1.3,5.1 v 8.1 c 0,1 0,1.9 0,2.6 0,0.7 0.1,1.3 0.1,1.7 0.1,0.4 0.2,0.8 0.3,1.1 0.1,0.3 0.2,0.6 0.3,1 h 8.3 c -0.4,-1 -0.6,-2 -0.7,-2.9 -0.2,-0.9 -0.2,-2 -0.2,-3.3 z m -8.2,-27.7 c 0,2.1 -0.4,3.5 -1.3,4.3 -0.9,0.8 -2.1,1.2 -3.6,1.2 h -3.2 v -15.9 h 3.9 c 1.4,0 2.5,0.4 3.1,1.3 0.7,0.8 1,2.2 1,4.1 v 5 z"
   class="st0"
   inkscape:connector-curvature="0"
   style="fill:#000000" />

		<polygon
   id="polygon12032"
   points="218.4,128.7 218.4,114.3 232.4,114.3 232.4,106.9 210.2,106.9 210.2,158.7 232.4,158.7 232.4,151.3 218.4,151.3 218.4,136.1 229.6,136.1 229.6,128.7 "
   class="st0"
   style="fill:#000000" />

		<path
   id="path12034"
   d="m 264.9,131.1 c 1.8,-0.8 3.2,-2.1 4,-3.8 0.8,-1.7 1.3,-3.9 1.3,-6.6 v -1.9 c 0,-4 -1,-7 -2.8,-9 -1.9,-2 -5,-3 -9.2,-3 h -12.3 v 51.8 h 12.8 c 4.1,0 7.2,-1 9.2,-3.1 2.1,-2.1 3.1,-5.1 3.1,-9.1 v -4.2 c 0,-2.8 -0.5,-5.1 -1.4,-7 -1,-1.9 -2.5,-3.3 -4.7,-4.1 z m -11,-16.8 h 3.9 c 1.4,0 2.5,0.4 3.1,1.3 0.7,0.8 1,2.2 1,4.1 v 2.9 c 0,2.1 -0.4,3.5 -1.3,4.3 -0.9,0.8 -2.1,1.2 -3.6,1.2 h -3.2 v -13.8 z m 8.9,31.9 c 0,1.9 -0.4,3.3 -1.1,4 -0.7,0.7 -1.8,1.1 -3.1,1.1 h -4.7 v -15.9 h 3.6 c 1.9,0 3.2,0.4 4,1.3 0.8,0.9 1.2,2.5 1.2,5 v 4.5 z"
   class="st0"
   inkscape:connector-curvature="0"
   style="fill:#000000" />

		<path
   id="path12036"
   d="m 296.7,106.3 c -4,0 -7.1,1.1 -9.2,3.4 -2.1,2.2 -3.2,5.5 -3.2,9.7 v 26.9 c 0,4.2 1.1,7.4 3.2,9.7 2.1,2.2 5.2,3.4 9.2,3.4 4,0 7.1,-1.1 9.2,-3.4 2.1,-2.2 3.2,-5.5 3.2,-9.7 v -26.9 c 0,-4.2 -1.1,-7.4 -3.2,-9.7 -2.1,-2.3 -5.2,-3.4 -9.2,-3.4 z m 4.3,40.5 c 0,1.9 -0.4,3.2 -1.1,4 -0.8,0.8 -1.8,1.1 -3.1,1.1 -1.3,0 -2.3,-0.4 -3.1,-1.1 -0.8,-0.8 -1.1,-2.1 -1.1,-4 v -28 c 0,-1.9 0.4,-3.2 1.1,-4 0.8,-0.8 1.8,-1.1 3.1,-1.1 1.3,0 2.3,0.4 3.1,1.1 0.8,0.8 1.1,2.1 1.1,4 z"
   class="st0"
   inkscape:connector-curvature="0"
   style="fill:#000000" />

		<polygon
   id="polygon12038"
   points="319.2,158.7 326.9,158.7 333.6,138.2 340.2,158.7 348.8,158.7 339.7,132.1 348.2,106.9 340.7,106.9 334.4,126 328.3,106.9 319.8,106.9 328.3,132.1 "
   class="st0"
   style="fill:#000000" />

		<rect
   id="rect12040"
   height="51.799999"
   width="8.1000004"
   class="st0"
   y="106.9"
   x="37.400002"
   style="fill:#000000" />

	</g>

</g>
  </g>
  <style
     id="style11919"
     type="text/css">
	.st0{fill:#FFFFFF;}
</style>
  <style
     id="style12010"
     type="text/css">
	.st0{fill:#FFFFFF;}
</style>
</svg>
