<?xml version="1.0" encoding="UTF-8"?> <!-- Generator: Adobe Illustrator 23.0.1, SVG Export Plug-In . SVG Version: 6.00 Build 0) --> <svg xmlns="http://www.w3.org/2000/svg" xmlns:xlink="http://www.w3.org/1999/xlink" id="Layer_1" x="0px" y="0px" viewBox="0 0 74 60" style="enable-background:new 0 0 74 60;" xml:space="preserve"> <style type="text/css"> .st0{fill:#FFFFFF;} </style> <path class="st0" d="M70.05,6.13c-0.15-0.5-0.38-0.98-0.67-1.44c-0.55-0.89-1.42-1.58-2.61-2.06c-1.19-0.48-2.97-0.87-5.35-1.17 l-9.85-1.22c-0.25-0.03-0.48,0.13-0.5,0.36l-2.34,18.95L45.57,0.58c-0.03-0.2-0.21-0.35-0.41-0.34L35.13,0.52 c-0.2,0.01-0.37,0.16-0.39,0.36l-2,16.78L31.18,1.28c-0.02-0.22-0.22-0.38-0.44-0.36l-8.49,0.81c-0.18,0.02-0.33,0.15-0.36,0.33 l-2.4,12.11L14.65,2.75c-0.06-0.17-0.23-0.28-0.42-0.26L5.71,3.3C5.49,3.32,5.32,3.52,5.34,3.74L7.82,29.8 c-0.57,0.3-1.06,0.69-1.45,1.19c-0.28,0.34-0.54,0.72-0.78,1.14c-0.24,0.42-0.47,1.06-0.66,1.92c-0.2,0.86-0.39,2.01-0.56,3.45 c-0.18,1.44-0.34,3.36-0.48,5.76c-0.13,2.24-0.22,4.09-0.25,5.54c-0.03,1.45,0,2.66,0.09,3.61c0.09,0.95,0.23,1.71,0.41,2.29 c0.19,0.57,0.41,1.07,0.68,1.5c0.56,0.93,1.44,1.6,2.62,2.02c1.18,0.42,2.93,0.69,5.26,0.83c1.89,0.11,3.44,0.02,4.64-0.28 c1.2-0.3,2.15-0.8,2.85-1.5c0.7-0.7,1.2-1.6,1.5-2.71c0.14-0.52,0.26-1.1,0.36-1.72l-0.76,6.43c-0.03,0.27,0.18,0.5,0.45,0.49 l6.33-0.18c0.23-0.01,0.42-0.19,0.43-0.43l0.25-6.65c0.01-0.23,0.2-0.42,0.43-0.42l3.54-0.1c0.24-0.01,0.44,0.17,0.45,0.41l0.5,6.62 c0.02,0.24,0.22,0.42,0.45,0.41l6.69-0.18c0.27-0.01,0.47-0.25,0.42-0.51l-0.08-0.5l8.92,0.84c0.34,0.03,0.65-0.2,0.72-0.53 l3.14-15.17l1.03,14.8c0.03,0.37,0.35,0.65,0.72,0.62l13.9-0.97c0.37-0.03,0.65-0.35,0.62-0.72l-0.25-3.58 c-0.03-0.37-0.35-0.65-0.72-0.62l-7.48,0.52c-0.27,0.02-0.5-0.18-0.52-0.45l-0.45-6.39c-0.02-0.27,0.18-0.5,0.45-0.52l7.38-0.51 c0.37-0.03,0.65-0.35,0.62-0.72l-0.22-3.13c-0.03-0.37-0.35-0.65-0.72-0.62l-7.38,0.51c-0.27,0.02-0.5-0.18-0.52-0.45l-0.42-6.01 c-0.02-0.27,0.18-0.5,0.45-0.52l7.54-0.53c0.37-0.03,0.65-0.35,0.62-0.72L68.37,30c-0.03-0.37-0.35-0.65-0.72-0.62L53.7,30.35 c-0.37,0.03-0.65,0.35-0.62,0.72l0.01,0.2l-4.07-0.32l-3.43,21.44l-1.04-21.79l-5.12-0.4c-0.4-0.03-0.74,0.3-0.72,0.7l0.73,16.97 l-2.97-17.9c-0.04-0.22-0.23-0.38-0.45-0.37l-10.85,0.3c-0.22,0.01-0.4,0.17-0.43,0.39l-2.51,21.07c0.02-0.24,0.04-0.49,0.06-0.75 c0.04-0.64,0.06-1.14,0.06-1.51c0-0.18,0-0.36-0.02-0.54c-0.02-0.32-0.28-0.58-0.6-0.59l-5.19-0.31c-0.35-0.02-0.66,0.25-0.67,0.6 c-0.05,0.94-0.16,2.62-0.23,3.1c-0.09,0.66-0.25,1.24-0.46,1.74c-0.26,0.7-0.99,1.01-2.19,0.94c-0.84-0.05-1.41-0.15-1.73-0.31 c-0.32-0.16-0.54-0.42-0.67-0.79c-0.09-0.26-0.17-0.57-0.22-0.91c-0.05-0.35-0.09-0.85-0.1-1.5c-0.02-0.65,0-1.53,0.05-2.62 c0.05-1.1,0.12-2.52,0.23-4.28c0.1-1.73,0.19-3.13,0.28-4.2c0.08-1.07,0.17-1.92,0.26-2.55c0.09-0.63,0.18-1.11,0.28-1.42 c0.09-0.31,0.2-0.59,0.32-0.84c0.17-0.35,0.41-0.58,0.73-0.7c0.32-0.12,0.84-0.16,1.57-0.12c0.69,0.04,1.17,0.13,1.43,0.28 c0.27,0.14,0.48,0.35,0.65,0.61c0.17,0.29,0.28,0.76,0.36,1.4c0.05,0.49-0.03,2.57-0.1,3.65c-0.02,0.35,0.25,0.65,0.6,0.67 l5.19,0.31c0.33,0.02,0.62-0.22,0.67-0.54c0.02-0.14,0.04-0.27,0.04-0.39c0.02-0.29,0.04-0.74,0.08-1.36c0.2-3.39-0.3-5.75-1.49-7.1 c-0.55-0.65-1.35-1.14-2.43-1.49c-1.07-0.34-2.65-0.58-4.72-0.7c-0.28-0.02-0.55-0.03-0.82-0.04l-1.7-15.55l7.53,15.33 c0.07,0.16,0.23,0.26,0.41,0.24l2.26-0.21c0.18-0.02,0.32-0.15,0.35-0.32l4.02-16.43l1.72,15.76c0.02,0.22,0.22,0.38,0.44,0.36 l3.19-0.3c0.08,0.08,0.19,0.13,0.31,0.13l5.85-0.16c0.21-0.01,0.39-0.18,0.4-0.39l0.23-6.14c0.01-0.21,0.18-0.39,0.4-0.39l3.27-0.09 c0.22-0.01,0.4,0.16,0.42,0.38L43,27.41c0.02,0.22,0.2,0.38,0.42,0.38l4.31-0.12c0.01,0.2,0.18,0.38,0.4,0.41l9.85,1.22 c1.19,0.15,2.23,0.24,3.12,0.27c0.89,0.04,1.67,0.01,2.35-0.06c0.67-0.08,1.26-0.23,1.75-0.45c0.5-0.23,0.92-0.53,1.28-0.91 c0.36-0.35,0.68-0.76,0.97-1.21c0.29-0.45,0.55-1.08,0.79-1.9c0.24-0.82,0.48-1.89,0.72-3.21c0.24-1.33,0.5-3.07,0.76-5.22 c0.26-2.11,0.45-3.83,0.55-5.16c0.11-1.33,0.13-2.42,0.08-3.27C70.3,7.32,70.2,6.64,70.05,6.13 M29.1,47.02l1.54-8.52l1.92,8.43 c0.04,0.17-0.09,0.34-0.27,0.35l-2.91,0.08C29.21,47.36,29.07,47.19,29.1,47.02 M41.72,16.57l-2.69,0.07c-0.17,0-0.3-0.15-0.27-0.31 l1.43-7.87l1.78,7.78C42.01,16.41,41.89,16.57,41.72,16.57 M63.19,9.37c-0.04,0.59-0.1,1.39-0.21,2.38c-0.1,1-0.26,2.29-0.45,3.88 c-0.2,1.62-0.37,2.92-0.51,3.91c-0.14,0.99-0.28,1.77-0.41,2.34c-0.13,0.57-0.24,1-0.33,1.28c-0.09,0.29-0.21,0.53-0.35,0.74 c-0.23,0.32-0.52,0.52-0.86,0.6c-0.34,0.08-0.9,0.08-1.66-0.02l-3.05-0.38l2.28-18.45l3.05,0.38c0.73,0.09,1.26,0.22,1.59,0.38 c0.33,0.17,0.57,0.42,0.72,0.76c0.09,0.23,0.15,0.51,0.19,0.83C63.22,8.32,63.22,8.78,63.19,9.37"></path> </svg> 