<?xml version="1.0" encoding="utf-8"?>
<!-- Generator: Adobe Illustrator 28.0.0, SVG Export Plug-In . SVG Version: 6.00 Build 0)  -->
<svg version="1.1" id="Layer_1" xmlns="http://www.w3.org/2000/svg" xmlns:xlink="http://www.w3.org/1999/xlink" x="0px" y="0px"
	 viewBox="0 0 46.8 74.9" style="enable-background:new 0 0 46.8 74.9;" xml:space="preserve">
<style type="text/css">
	.st0{fill:#FFFFFF;}
</style>
<g>
	<path class="st0" d="M17.3,56.8C17.3,56.8,17.3,56.8,17.3,56.8L17.3,56.8L17.3,56.8C17.2,56.8,17.2,56.8,17.3,56.8
		c-0.1,0-0.2,0-0.3,0c-0.1,0-0.2-0.1-0.2-0.2l0.3,0l-0.3,0c0,0,0,0-0.1-0.1c0.1,0,0.1,0,0.2,0l-0.2-0.1c0.2,0,0.4-0.1,0.5,0.1l0-0.1
		c0.1,0,0.2-0.1,0.1-0.2c0.1,0-0.2-0.1-0.1-0.1l-0.1-0.2l0.1,0c0.1-0.1-0.3-0.3,0.2-0.4c0-0.1-0.1-0.1,0-0.2l0.2,0
		c0-0.1,0.2-0.2,0.1-0.2c0.5,0,0.2-0.3,0.3-0.4l-0.3,0c0-0.1,0-0.1-0.1-0.2l-0.2,0c-0.2-0.1,0.2-0.2,0.2-0.3c0.1,0,0.1,0,0,0.1
		c0.5-0.1-0.3-0.3,0.1-0.4c-0.1,0,0-0.1,0-0.1c0,0,0,0,0,0c0,0,0,0,0,0c0,0,0.1,0,0.1,0c-0.1,0-0.1,0-0.1,0c0,0,0-0.1-0.1-0.1l0.2,0
		c0,0,0,0,0,0c0.1,0-0.1,0-0.3,0c0,0-0.1,0-0.1-0.1c0.4,0-0.1-0.1,0.3-0.1c-0.2-0.1-0.1-0.2-0.5-0.3c0.1,0,0.1,0,0.1,0
		c0.1,0,0.1-0.1,0-0.1l0.3,0l-0.4-0.1c0.2,0,0.3,0,0.5,0c-0.3-0.2-0.1-0.1-0.4-0.3l0.2,0c0,0-0.2-0.1-0.1-0.1c0.4,0,0.2-0.4,0.6-0.6
		c-0.6,0,0.3-0.1-0.2-0.1c0.1,0,0.2,0,0.3,0c-0.1-0.1,0.3-0.2-0.1-0.3c0.1,0,0.2,0,0.3,0c0,0-0.1-0.1,0-0.1c0.1,0,0.1,0,0.2,0.1
		c0-0.1-0.4-0.2-0.8-0.2c0.2,0,0.2-0.1-0.1-0.1c0.1,0,0.3,0,0.3,0.1c0,0,0.3-0.2-0.1-0.3c0.1,0,0-0.1,0-0.1c0-0.1,0.1-0.1,0.1-0.2
		l-0.1,0c-0.4-0.1-0.1-0.1-0.1-0.2l0,0c0.3-0.1-0.1-0.1,0.2-0.2l-0.2,0c-0.5-0.1,0.3-0.1,0.2-0.2l-0.1,0c-0.2-0.1,0.7-0.1,0.8-0.1
		c0,0,0.1,0,0.1,0c0.3-0.1-0.3,0-0.4-0.2c0.2,0,0.4,0.1,0.5,0c0.1,0-0.5-0.3-0.2-0.3c-0.1,0-0.3,0-0.4,0c0-0.1,0.5-0.2,0.1-0.3
		c0,0,0.1,0,0.1,0c-0.1-0.1-0.1-0.2-0.4-0.3c0.8,0-0.3-0.4,0.4-0.3v-0.2l0.1,0c0.1-0.1-0.1-0.2-0.3-0.2c0.1,0,0.1,0,0.2,0
		c0.2-0.2,0.2-0.2-0.2-0.3l0.3,0c-0.1,0,0.4-0.2,0.2-0.4c0,0,0.1,0,0.1,0c-0.3-0.2,0.8-0.4-0.1-0.5l-0.2-0.1c-0.1,0.1-0.4-0.1-0.6,0
		c0-0.1,0.3-0.1,0.3-0.1l0,0c0.5,0.1,0.2-0.2,0.5-0.1c0-0.3,0.4-0.6,0.4-0.9l-0.4,0l0-0.1c0.1,0,0.3,0,0.3,0.1
		c0.2,0-0.2-0.1-0.2-0.1c0.2-0.1,0.4,0.1,0.4,0l0-0.1l0,0c-0.1-0.1-0.3-0.1-0.3-0.2c0.1,0,0.2,0,0.3,0c0,0,0,0,0,0l0.1-0.1l-0.3,0
		c-0.1-0.1,0-0.1-0.3-0.1c0.5,0,0.3-0.5,0.4-0.5c-0.2-0.1-0.2-0.2-0.1-0.3c-0.1,0-0.4,0-0.3-0.1c0.7,0.1,0.3-0.1,0.8-0.2
		c-0.3,0,0-0.2-0.5-0.2c0.1-0.1,0.3,0,0.4,0c-0.2-0.2,0.2-0.4,0.2-0.6c-0.1,0-0.2,0-0.4,0l0.5-0.1c0,0-0.5-0.1-0.2-0.1
		c-0.1,0-0.2,0-0.2,0c0.5-0.4-0.2-0.8,0.7-1.2c-0.2,0-0.2,0-0.2,0c0,0-0.2,0-0.3,0l0.4-0.2c-0.3,0,0-0.2-0.3-0.2l0,0.1
		c-0.4-0.1-0.9,0.1-1.3,0c0.4,0.1-0.7,0.2-0.1,0.3c-0.1,0-0.2,0-0.3,0c0.2,0,0.2,0.1,0.1,0.2l0,0c0,0.2-0.2,0.3-0.4,0.5l0.2,0
		c0,0-0.1,0.1-0.2,0.1c0.4,0.1,0-0.1,0.4-0.1c-0.5,0-0.1,0.4-0.6,0.4c0,0.1,0.3,0,0.3,0.1l-0.2,0l0.2,0c0,0-0.2,0.1-0.4,0.1
		c0,0,0,0,0-0.1c-0.2,0.1,0,0.2,0,0.2l0.1-0.1c0.1,0.2-0.1,0.5,0.1,0.7l0.1,0c0.2,0.2-0.1,0.1-0.1,0.3l0,0c0.1,0,0.2,0.1,0.1,0.1
		c-0.1-0.1-0.3,0.1-0.4,0c0.2,0.2,0.2,0.1,0.6,0.2l-0.2,0c0.2,0,0.3,0.1,0.3,0.1c-0.1-0.1-0.3,0-0.5-0.1c-0.4,0.1,0.4,0.3-0.2,0.3
		c0.5,0.1,0.3-0.1,0.4-0.1c0.2,0,0.4,0.1,0.3,0.1c0,0.1-0.7,0-0.7,0.2c0,0,0,0,0,0c-0.1,0,0.2,0.1-0.1,0.2c0.3,0.1,0,0.1,0.4,0.1
		l-0.1-0.1c0.1,0.1,0.5,0.2,0.3,0.3c-0.1,0-0.2-0.1-0.2-0.1c-0.1,0,0.1,0.1-0.1,0.1c-0.4,0-0.1-0.2-0.3-0.3c-0.2,0,0.3,0.2-0.2,0.1
		c0.5,0.1-0.1,0.1,0.3,0.3l-0.2,0c0,0,0.1,0.1,0.1,0.1L17.5,46c0.3,0.1-0.3,0.1-0.1,0.2c0-0.2,0.3,0,0.5-0.1
		c0.3,0.2-0.6,0.1-0.6,0.3c0,0,0.2-0.1,0.3,0c-0.1,0-0.2,0.1-0.3,0.1c0,0.1,0.3,0,0.4,0.1c-0.3,0,0.1,0.1,0.2,0.1l-0.2,0
		c-0.2,0.2,0.5,0.1,0.3,0.2l-0.3-0.1l0.1,0.1l-0.3,0c0.2,0.1,0.1,0.1,0,0.2c0.2,0,0.4,0,0.4,0.1c-0.2,0-0.2,0-0.2,0.1
		c-0.1,0-0.3-0.1-0.1-0.1c-0.1,0-0.1,0-0.2,0c-0.2,0-0.1,0.1-0.1,0.2c0,0,0,0,0.1,0l0.3,0.2c-0.1,0-0.2,0-0.2,0c0,0,0.1,0.1,0.1,0.1
		c-0.2,0-0.4,0-0.5-0.1l0.2,0.2c-0.1,0-0.3,0.1-0.3,0c-0.1,0.1,0.3,0.2,0.2,0.3c0,0,0.1,0,0.1,0C17,48,16.8,48.1,17,48.2l-0.4,0
		c0.1,0.1,0.5,0,0.6,0.1c0.1,0.1-0.3,0-0.4,0c0.2,0.1,0.5,0.2,0.2,0.3c-0.1,0,0-0.1,0-0.1l-0.2,0.1c-0.3-0.1-0.2-0.2-0.5-0.1
		c0.7,0.1,0,0.3,0.7,0.4l-0.2,0c0,0,0,0,0,0c-0.3,0.1,0.5,0.1,0.4,0.2c-0.1,0-0.2,0.1-0.2,0l0.1,0.1c0,0-0.1,0-0.1,0l0,0.2l0,0
		c0.1,0,0.3,0.1,0.3,0.1c-0.1,0-0.1,0-0.2,0l0.1,0.1c-0.2,0-0.3-0.1-0.3-0.1c-0.7,0,0.2,0.1-0.3,0.2l-0.1-0.1
		c-0.4,0-0.3,0.1-0.5,0.1c0.1,0,0.7-0.1,0.8,0c-0.1,0-0.1,0,0,0.1c-0.2,0-0.2,0-0.2,0.1l-0.3,0c0.1,0.1,0.2,0.1,0.4,0.1
		c0,0.1-0.3,0.1-0.5,0c-0.1,0.1,0.4,0,0.4,0.1c-0.1,0.1,0,0.2,0.1,0.3c-0.1,0.1-0.2,0-0.3,0l0.2,0.1c0,0-0.1,0-0.1,0
		c0.1,0.1,0.3,0,0.4,0.1c0.4,0.1-0.6,0.1-0.2,0.2c-0.1,0-0.2,0-0.3,0c0.1,0.1,0.2,0.1,0.2,0.1l0,0l0,0c0.1,0,0.1,0.1,0.3,0.1
		l-0.2,0.1c0.3,0,0.5,0.1,0.7,0.2c0.1,0,0.2,0,0.3,0l0.1,0.1c-0.1,0-0.2,0-0.3,0c0,0,0,0,0.1,0c-0.1,0-0.3,0-0.5-0.1
		c0.1,0,0.1,0,0.2,0c-0.2,0-0.4-0.1-0.6-0.1c0,0,0.1,0,0.1,0c-0.1,0-0.1,0-0.1,0c0,0,0,0,0.1,0l-0.4,0l0.1,0l-0.3,0.1
		c0.3,0.2,0.8,0.3,0.9,0.5c-0.2-0.1-0.4-0.1-0.7-0.1c0.3,0-0.1-0.2,0-0.2c0,0-0.2,0-0.2,0l0.3,0.2c-0.3,0-0.2,0-0.3,0
		c0.5,0,0.3,0.2,0.4,0.2c-0.2,0-0.3-0.1-0.3-0.1c-0.4,0,0.6,0.2,0.2,0.2c0,0,0,0-0.1,0c0.1,0.1,0,0.2-0.2,0.1l0,0
		c-0.1,0.1-0.1,0.4,0.3,0.5c-0.1,0-0.5-0.1-0.6-0.1l1.4,0.4c-0.4-0.1-1.3-0.1-1.4-0.2c-0.1,0-0.1,0.1,0,0.1c0.1,0,0.5,0,0.6,0
		c-0.4,0-0.2,0-0.6,0.1c0.1,0,0.6,0.1,0.6,0.1c-0.1,0-0.6-0.1-0.6-0.1l0.5,0.2c-0.1,0-0.5-0.1-0.6-0.1c0.1,0,0,0.1,0,0.1l0.1,0
		c-0.1,0.1,0.8,0.2,0.7,0.4c-0.1,0-0.7-0.1-0.8-0.1c0.3,0.1,1.3,0.3,1.5,0.5l-0.2,0l0.2,0.1c-0.4-0.1-1.3-0.4-1.6-0.5
		c-0.1,0-0.2,0-0.2,0.1c-0.2,0-0.2-0.1-0.2-0.1l-0.2,0.2c0.3,0,0.3,0.2,0.6,0.2l-0.3-0.2c0.3,0,0.9,0.2,0.8,0.4
		c-0.1,0-0.6-0.1-0.7-0.1c0.1,0,0.2,0.2,0.1,0.2l-0.2-0.1c-0.1,0.1,0.4,0.2,0.1,0.2c0,0-0.5,0-0.3,0.1c0.4,0,1.6,0.1,1.9,0.2
		c0,0-0.3,0.1-0.5,0.1l-0.7-0.2c0.2,0.1,0.2,0.1,0.2,0.1c-0.2,0-0.4-0.1-0.6-0.1c0.1,0,0.2,0.1,0.2,0.1c-0.1,0-0.3-0.1-0.3,0
		c0.3,0.1-0.1,0.1,0.3,0.1c0.1,0.1-0.1,0.1-0.1,0.1c0.2,0,0.7,0.2,0.8,0.3c-0.1,0-0.2,0-0.3,0c-0.1,0.1-0.3,0.2-0.3,0.3
		c-0.1,0-0.2,0-0.3,0c0.1,0,0.2,0.1,0.2,0.1c-0.3,0,0-0.1-0.4-0.1c0.2,0,0.2,0.1,0.3,0.2c0.3,0,0.1-0.1,0-0.2c0.4,0.1,0.8,0.2,1,0.4
		c0.1,0.1-0.3,0-0.2,0c-0.1,0.2,0.7,0.3,0.3,0.4c-0.3,0-0.5-0.1-0.7-0.1c-0.1-0.1,0.2-0.1,0.2-0.2l-0.1,0.1c-0.1,0-0.1-0.1,0-0.1
		c-0.3,0-0.2,0.3-0.4,0.5c0.1,0,0.2,0.1,0.3,0.1l0-0.1c0.2,0,0.3,0.1,0.4,0.1c0.1,0.1,0.3,0.2,0.2,0.3l-0.3,0c0.1,0,0.2,0,0.1-0.1
		c0.1,0.1-0.5,0.1-0.1,0.2l0.2,0c0.1,0.1,0.4,0.2,0.3,0.3c0.3,0,0,0,0.3,0c-0.5,0,0.1-0.2-0.4-0.2c0.4,0,0.2-0.1,0.6-0.1
		C17.4,56.9,17.3,56.9,17.3,56.8z M19.9,45.6L19.9,45.6C19.7,45.6,19.8,45.6,19.9,45.6z M16.9,49.7C16.8,49.7,16.7,49.6,16.9,49.7
		C17.1,49.7,16.9,49.7,16.9,49.7z M17,51.5C16.9,51.4,17,51.4,17,51.5C17.1,51.4,17.1,51.4,17,51.5z M16.4,54.8l0.4,0
		c0,0-0.1,0-0.1,0C16.6,54.8,16.5,54.8,16.4,54.8z M17.3,56.4L17.3,56.4C17.4,56.4,17.4,56.4,17.3,56.4z"/>
	<polygon class="st0" points="13.9,59.4 13.9,59.4 14.1,59.5 	"/>
	<path class="st0" d="M14.3,59.9L14.3,59.9L14,59.8c0.1,0.1,0.2,0.3,0.3,0.4c0.1,0.1,0.2,0.2,0.2,0.3C14.8,60.3,14.3,60.2,14.3,59.9
		z"/>
	<path class="st0" d="M14.4,61.4c0,0,0.1,0.1,0.1,0.1C14.6,61.4,14.7,61.6,14.4,61.4C14.4,61.4,14.4,61.4,14.4,61.4z"/>
	<path class="st0" d="M14.4,61.4C14.3,61.3,14.4,61.5,14.4,61.4L14.4,61.4z"/>
	<path class="st0" d="M14.8,62c0.2,0.1,0.2,0,0.2-0.1l-0.2-0.1C14.8,61.9,14.9,62,14.8,62z"/>
	<path class="st0" d="M15.3,61.9l-0.1,0C15.2,61.9,15.2,61.9,15.3,61.9z"/>
	<path class="st0" d="M15.1,61.8c0.1,0,0,0-0.1-0.1l0.2,0.1C15.2,61.8,15.3,61.8,15.1,61.8z"/>
	<path class="st0" d="M15,61.5c-0.3-0.3-0.5-0.1-0.1,0.2C14.9,61.5,14.8,61.4,15,61.5z"/>
	<path class="st0" d="M14.9,60.5l0-0.2l-0.2-0.1C14.8,60.3,14.8,60.6,14.9,60.5z"/>
	<path class="st0" d="M16,62.9c0.1,0,0-0.2,0.1-0.2l-0.2,0C16,62.7,16.1,62.8,16,62.9z"/>
	<path class="st0" d="M16.1,62.6l0.3,0.1C16.2,62.6,16.1,62.6,16.1,62.6z"/>
	<path class="st0" d="M15.4,61.7c-0.1,0-0.2-0.1-0.2-0.1S15.3,61.7,15.4,61.7c0.2,0.1,0.3,0.1,0.3,0.1l-0.1,0
		C15.6,61.7,15.5,61.7,15.4,61.7z"/>
	<path class="st0" d="M16.6,63.4c0,0,0.1,0,0.2,0c0.1,0,0.2,0,0.2,0l-0.1,0L16.6,63.4z"/>
	<path class="st0" d="M17.5,63.6c-0.2,0.1,0.1,0.2-0.1,0.2c0.2,0,0.4,0,0.6,0C17.8,63.8,17.6,63.7,17.5,63.6z"/>
	<path class="st0" d="M16.8,63C16.8,62.9,16.7,62.9,16.8,63c-0.1,0-0.1,0.1,0,0.2L16.8,63z"/>
	<path class="st0" d="M16.8,63L16.8,63c0.1,0,0.1,0,0.1,0.1C16.9,63,16.8,63,16.8,63z"/>
	<path class="st0" d="M16.9,63C16.9,63,17,63.1,16.9,63C17,63.1,16.9,63,16.9,63z"/>
	<path class="st0" d="M16.3,62c-0.2,0-0.1,0.2-0.4,0.2C16.2,62.2,16.5,62.3,16.3,62z"/>
	<path class="st0" d="M16.5,62.5c0,0,0,0.1-0.1,0.1l0.3,0L16.5,62.5z"/>
	<polygon class="st0" points="16.7,62.7 16.8,62.7 16.9,62.7 	"/>
	<path class="st0" d="M17.8,63.5c0.1,0,0.3,0,0.4,0c-0.1-0.1-0.3-0.1-0.4-0.2C17.8,63.4,17.7,63.4,17.8,63.5z"/>
	<path class="st0" d="M18.6,63.8c0,0-0.1-0.1-0.2-0.1C18.5,63.7,18.6,63.8,18.6,63.8z"/>
	<path class="st0" d="M17.6,63.3c0.1,0,0.2,0,0.3,0.1c0,0,0,0,0,0C17.7,63.2,17.6,63.2,17.6,63.3c-0.1,0-0.1,0-0.2,0c0,0,0,0,0,0.1
		c0,0,0,0,0,0c0,0,0,0,0,0l0,0C17.4,63.3,17.5,63.3,17.6,63.3z"/>
	<path class="st0" d="M20.2,62.8c0,0.1-0.3,0.3-0.5,0.1c-0.2,0.1-0.2,0.6,0,0.9c0-0.1,0-0.1,0.3-0.2c-0.1-0.1-0.5-0.3-0.3-0.4
		c0.3,0,0.3,0.1,0.4,0.2c-0.1-0.2,0.4-0.2,0.4-0.5L20.2,63C20.2,62.9,20.3,62.9,20.2,62.8z"/>
	<path class="st0" d="M19.1,63.7c0,0-0.1,0-0.1,0c0.1,0,0.2,0.1,0.3,0.3c0.2,0,0.3-0.1,0.3-0.1L19.1,63.7L19.1,63.7z"/>
	<path class="st0" d="M18.5,63.6c0.1-0.1,0.4-0.1,0.3-0.3c-0.3-0.1-0.3,0.1-0.5,0.1C18.9,63.4,18.2,63.4,18.5,63.6
		c-0.1,0-0.2,0-0.3-0.1C18.3,63.6,18.4,63.6,18.5,63.6L18.5,63.6L18.5,63.6L18.5,63.6C18.4,63.6,18.4,63.6,18.5,63.6
		C18.5,63.6,18.5,63.6,18.5,63.6C18.5,63.6,18.5,63.6,18.5,63.6C18.7,63.6,18.5,63.6,18.5,63.6C18.5,63.6,18.5,63.6,18.5,63.6
		L18.5,63.6l0.5,0.1C18.9,63.6,18.8,63.6,18.5,63.6z"/>
	<path class="st0" d="M16.8,61.9C16.8,61.9,16.8,61.9,16.8,61.9c-0.1,0-0.3,0-0.2,0.2h0c0.1,0.1,0.2,0.4,0.1,0.4
		c0-0.1,0.1-0.3,0.1-0.4c0,0-0.1,0-0.2,0C16.6,62,16.7,62,16.8,61.9C16.8,61.9,16.8,61.9,16.8,61.9C16.8,61.9,16.8,61.9,16.8,61.9z"
		/>
	<path class="st0" d="M17.9,62.8c-0.2-0.1-0.2,0-0.3,0C17.6,62.8,17.7,62.9,17.9,62.8c0,0.1,0.2,0.1,0.2,0.1L17.9,62.8L17.9,62.8z"
		/>
	<path class="st0" d="M27.5,51.6C27.4,51.6,27.4,51.7,27.5,51.6L27.5,51.6z"/>
	<path class="st0" d="M31.4,58.1c-0.1,0.1-0.1,0.1-0.2,0.2c0.2,0,0.6,0,0.4-0.1L31.4,58.1z"/>
	<path class="st0" d="M33.1,51.3L33.1,51.3c0,0.1,0.1,0.1,0.2,0.1C33.2,51.4,33.2,51.4,33.1,51.3z"/>
	<path class="st0" d="M32.5,51.4c0,0-0.1,0.1-0.1,0.1C32.4,51.5,32.5,51.4,32.5,51.4z"/>
	<path class="st0" d="M25.7,62.4c0.2,0,0.3-0.1,0.4-0.1C25.8,62.3,25.6,62.3,25.7,62.4z"/>
	<path class="st0" d="M25.1,43.6c0,0,0.1-0.1,0.1-0.2C25.3,43.5,25.2,43.5,25.1,43.6z"/>
	<path class="st0" d="M31.3,55.4C31.3,55.4,31.3,55.5,31.3,55.4L31.3,55.4L31.3,55.4z"/>
	<path class="st0" d="M31.3,55.5l0.5,0.2c0,0-0.1-0.1-0.2-0.2c-0.1-0.1-0.3-0.2-0.3-0.2C31.5,55.3,31.4,55.4,31.3,55.5z"/>
	<path class="st0" d="M24.8,52.4C24.9,52.4,24.9,52.4,24.8,52.4L24.8,52.4z"/>
	<path class="st0" d="M24.8,52.3L24.8,52.3C24.8,52.3,24.8,52.3,24.8,52.3C24.8,52.3,24.8,52.3,24.8,52.3z"/>
	<path class="st0" d="M24.8,52.3C24.8,52.3,24.8,52.3,24.8,52.3C24.8,52.4,24.8,52.4,24.8,52.3C24.8,52.4,24.8,52.4,24.8,52.3z"/>
	<path class="st0" d="M33.7,51.5c0.1-0.2,0-0.4-0.2-0.5c0.1-0.1,0.1-0.3,0.3,0c0,0,0-0.1-0.1-0.2c0-0.1-0.1-0.2-0.1-0.3
		c-0.1-0.2-0.3-0.4-0.4-0.3c0-0.1-0.2-0.2-0.2-0.2c-0.2-0.1-0.3-0.1-0.4-0.1c-0.1,0-0.2,0-0.4,0l0.1,0c-0.3,0.3-0.3,0.1-0.7,0.1l0,0
		c-0.1,0-0.2,0-0.2,0c-0.1,0-0.1,0-0.1,0c-0.1,0-0.1,0-0.1,0c-0.1,0-0.1,0.1-0.4,0l0.1,0.2c0,0.4-0.6-0.2-0.9,0l0.1,0.1
		c-0.2,0.1-0.6-0.5-0.8-0.5c0,0,0.1-0.1,0.1-0.1c0,0,0,0,0,0c0.5-0.3,1-0.6,1.4-1l-0.3-0.1c0,0,0.1-0.1,0.1-0.1
		c0.1-0.1,0.1-0.1,0.1-0.1c0.1,0,0.3,0,0.1,0.2c0.2,0,0.2-0.4,0.1-0.4c0.4-0.3,0.2,0.3,0.3,0.2l0.1-0.2l-0.1,0
		c0-0.2-0.1-0.3,0.1-0.5c0.2-0.1,0.2,0,0.3,0c0,0,0,0,0.1-0.1l0.3-0.3l-0.3,0c0-0.2,0.2-0.3-0.1-0.3c0.3,0,0.5-0.3,0.7-0.7
		c0.2-0.3,0.2-0.7,0.3-0.7c-0.1-0.3,0-0.5,0.1-0.8c-0.1,0.1-0.4,0.1-0.3-0.2c0.3,0.1,0.4,0,0.4-0.2c0-0.1,0.1-0.2,0.1-0.3
		c0-0.1,0.1-0.2,0.2-0.3c-0.1,0.1-0.2-0.1-0.2-0.3c0-0.2-0.1-0.4-0.3-0.2c0-0.3,0.2-0.1,0.3-0.3c-0.2-0.3-0.2-0.6-0.6-0.9
		c-0.3-0.3-0.8-0.4-1.3-0.4c0,0.1,0.1,0.2-0.1,0.3c0,0-0.1-0.1-0.2-0.2c-0.1-0.1-0.3-0.1-0.3-0.1C30,41.7,30,42,29.7,41.8
		c0,0,0.1,0.1,0,0.2c-0.7-0.1-1.5,0.2-2.2,0.4c-0.7,0.3-1.4,0.6-2.3,0.9c0.3,0,0.2,0,0,0.2c0.1,0,0.1,0.1,0.2,0.2
		c0,0-0.2,0.1-0.3,0.1c-0.2,0.1-0.3,0.2-0.3,0.2c0.1,0.1,0,0.2-0.1,0.4c-0.1,0.1-0.2,0.3,0,0.4c0,0,0-0.2,0-0.2
		c0.1,0.2,0.3,0.2,0.5,0.1c0.2,0,0.5,0,0.6,0.1c-0.1-0.2,0.1-0.2,0.3-0.3c0.1,0,0.2,0,0.3-0.1c0.1,0,0.1-0.1,0.1-0.3
		c0.1,0,0,0.1,0.1,0.2c-0.1-0.2,0-0.3,0.3-0.3l0,0c0.5-0.3,0.9-0.3,1.6-0.4l-0.1-0.2c0.2,0,0.2,0,0.3,0.1c0.1-0.3-0.4,0.1-0.4-0.2
		c0.2,0.1,0.4,0.1,0.7,0c0.3,0,0.5-0.1,0.7,0.1c0.2,0-0.1-0.2,0.1-0.2l0.1,0.1l0-0.2c0.1,0,0.2,0.1,0.2,0.2c0,0-0.1,0-0.1,0
		c0.1,0.1,0.3-0.1,0.3,0c0,0-0.1-0.1-0.1-0.1c0.2-0.1,0.4-0.1,0.5,0c0.1,0.1,0.2,0.2,0.3,0.3l0.1-0.1c0.1,0.1,0.1,0.2,0,0.2
		c0,0.1-0.1,0.1-0.1,0.3l0,0c0.1,0.1,0.1,0.2,0.1,0.3c-0.1-0.1-0.3,0.2-0.4,0c0.1,0.5,0.1,0.2,0.4,0.6l-0.2,0
		c0.1,0.1,0.2,0.2,0.1,0.4c-0.1-0.2-0.3,0.1-0.4-0.2c-0.3,0.2-0.2,0.4-0.3,0.5c0,0.2,0,0.3-0.3,0.3c0.3,0.4,0.4-0.3,0.5-0.1
		c0.2-0.1,0.2,0.3,0.1,0.4c-0.1,0.1-0.7,0-0.9,0.4c0,0,0,0,0-0.1c-0.2,0.1,0,0.3-0.3,0.4c0.2,0.2-0.2,0.2,0.1,0.4
		c0,0,0.1-0.1,0.1-0.2c0-0.1,0.1-0.2,0.1-0.2c-0.1,0.2,0.1,0.6-0.3,0.8c0-0.1,0-0.2,0-0.3c0,0,0,0,0,0c0-0.1,0-0.1,0,0c0,0,0,0,0,0
		c-0.2,0-0.1,0.2-0.3,0.2c-0.2-0.2,0.3-0.4,0.2-0.7c-0.2,0-0.1,0.5-0.3,0.2c0.3,0.4-0.3,0.3-0.2,0.7l-0.1-0.1c0,0,0,0.2-0.1,0.2
		l-0.1-0.3c0,0.3-0.5,0.2-0.6,0.4c0.4-0.3,0.3,0.1,0.5,0c-0.3,0.6-0.6-0.1-1.1,0.4c0.1-0.1,0.3-0.1,0.3,0c-0.1,0.1-0.3,0.1-0.5,0.1
		c-0.3,0.3,0.2,0.1,0.1,0.3c-0.3-0.1-0.1,0.2-0.2,0.4l-0.1-0.1c-0.5,0.2,0.2,0.4-0.3,0.5l0-0.3l-0.2,0.2l-0.1-0.2
		c-0.1,0.3-0.2,0.3-0.5,0.4c0.1,0.1,0.2,0.3,0,0.4c-0.2,0,0-0.2-0.3,0c0-0.1,0-0.3,0.2-0.2c0-0.1,0-0.1,0-0.2
		c-0.2,0-0.4,0.2-0.5,0.3c0,0,0.1,0,0.1,0l-0.2,0.4c0,0-0.1,0-0.1,0c0,0,0-0.1,0-0.1c-0.1,0.1-0.1,0.1-0.2,0.2c0,0,0,0,0,0
		c-0.1-0.1-0.1-0.3,0-0.4l-0.3,0.4c-0.1,0-0.3,0-0.3-0.1c-0.2,0-0.3,0.2-0.4,0.3c-0.1,0.1-0.2,0.1-0.2,0.1l0-0.1
		c-0.1,0-0.1,0.1-0.2,0.1l0-0.1c-0.1,0.1-0.1,0.1,0,0.1c-0.1,0.1-0.2,0.2-0.2,0.3c-0.1,0-0.3,0.1-0.4,0.1l0.3,0.2c0,0,0,0,0,0
		c-0.1,0.1-0.1,0-0.1,0c-0.3,0.3-0.4,0.5-0.4,0.7l-0.2,1.6l1.4-0.9c0.1-0.1,0.2-0.2,0.3-0.5l0.2,0.1c0-0.1,0.1-0.1,0.3-0.1
		c0,0,0,0,0,0c0,0,0.1,0,0.1,0c0,0,0,0-0.1,0c0,0,0,0,0,0c0,0,0,0,0,0c0,0-0.1-0.1-0.1-0.1l0.2,0.1c0,0,0.1,0,0.1,0c0,0,0,0,0,0
		c0,0,0,0,0,0c0.1,0,0.3-0.1,0.4-0.1c-0.1,0.3-0.2,0.2,0,0.4c-0.1-0.2,0-0.3,0.2-0.3c0.2,0,0.3-0.1,0.3-0.3c0,0,0,0,0.1,0l0.1,0.1
		c0,0,0,0-0.1,0c0.2,0.2,0.2-0.1,0.4-0.3c0.1,0,0.2-0.1,0.3-0.1c0.1,0,0.2,0.1,0.1,0.1l0.3-0.2c0.1,0,0.1,0.1,0,0.1l0.5-0.1l0,0
		c0.1-0.1,0.2-0.2,0.3-0.3c0.1,0.1-0.1,0.1,0,0.1l0.3-0.2c0.1,0.1-0.1,0.3-0.3,0.3c0.3,0.5,0.2-0.2,0.8,0.1l-0.3,0.1
		c0.2,0.3,0.4,0.1,0.7,0.3c-0.1-0.1-0.7-0.4-0.4-0.5c0.1,0,0.2,0,0.4-0.1c0,0.2,0.2,0.1,0.4,0.1l0,0.2c0.2-0.1,0.2-0.2,0.3-0.3
		c0.2,0,0.3,0.2,0.4,0.3c0.4,0-0.3-0.3,0.2-0.4c0.3,0.1,0.6-0.1,0.9-0.2c0.2,0.1,0,0.2,0.1,0.2l0.2-0.2c0,0,0,0.1,0,0.1
		c0.1-0.1,0-0.2,0.1-0.3c0-0.1,0.1,0,0.2,0c0.1,0.1,0.1,0.2,0.3,0c0,0.1-0.1,0.1-0.2,0.2c0.2-0.1,0.2-0.1,0.3-0.1c0.1,0,0.1,0,0.3,0
		c0,0-0.1,0.3-0.1,0.3c0.1-0.2,0.4-0.2,0.7,0c0.1-0.1,0.1-0.2,0.2-0.2c0,0,0.3,0.3,0.3,0.4c0,0.1-0.1,0-0.3,0c0,0,0.1,0,0.1,0.1
		c-0.1,0.2-0.3,0.1-0.4,0c0,0,0.1-0.1,0.1-0.2c-0.2,0-0.4,0-0.5,0c0,0,0.1,0,0.1,0c0,0-0.1,0-0.1,0c0,0,0,0,0.1,0c0,0-0.1,0-0.1,0.1
		c-0.1,0-0.2,0.1-0.2,0.1l0.1,0c0,0,0,0.1-0.1,0.2c0,0.1-0.1,0.2-0.1,0.2c0.3,0.2,0.8,0.5,0.9,1.1C33,53,32.8,53.1,32.6,53
		c0.3-0.1-0.1-0.4,0-0.6c0,0.1-0.2,0.1-0.2,0.1c0,0,0.1,0.1,0.1,0.2c0.1,0.1,0.1,0.2,0.1,0.2c-0.2,0-0.2,0.1-0.3,0.2
		c0.5,0,0.2,0.4,0.3,0.6c-0.2,0-0.3-0.1-0.2-0.3c-0.4,0.2,0.4,0.4,0.1,0.6c0-0.1,0-0.1,0-0.1c0.1,0.2-0.1,0.4-0.2,0.3l0-0.1
		c-0.2,0.3-0.5,1-0.2,1.2c0,0-0.4-0.2-0.4-0.3c0,0,0.2,0.3,0.4,0.5c0.2,0.3,0.3,0.6,0.3,0.6c-0.2-0.2-1-0.4-1-0.7
		c-0.1,0.1-0.2,0.1-0.2,0.3c0.1,0,0.5,0.1,0.5,0.2c-0.5,0-0.3,0-0.7,0.1c0.1,0,0.5,0.3,0.3,0.4c0-0.1-0.4-0.2-0.4-0.3
		c0,0,0,0.1,0.1,0.3c0,0.1,0.1,0.3,0.1,0.3c0-0.1-0.3-0.2-0.5-0.2c0.1,0-0.2,0.2-0.3,0.3l0.2-0.1c-0.4,0.3,0.2,0.7-0.2,1
		c0-0.1-0.4-0.5-0.6-0.3c0.1,0.2,0.5,1,0.3,1.4l-0.2,0l-0.1,0.3c-0.1-0.4-0.3-1.2-0.3-1.6c-0.2,0-0.2-0.1-0.3,0.1
		c-0.2,0,0-0.2,0-0.3l-0.5,0.3c0.2,0.2-0.1,0.5,0,0.6l0.3-0.6c0.2,0.2,0.3,0.7-0.1,1c-0.2,0-0.3-0.4-0.4-0.4c0,0.1-0.2,0.4-0.3,0.4
		l0-0.2c-0.3,0.1,0,0.5-0.5,0.5c-0.1,0.1-0.5,0-0.4,0.1c0.4,0.1,1.1,0.7,1.2,1c0,0-0.6,0.1-0.8,0.1c-0.3-0.1-0.2-0.5-0.5-0.6h0
		c0,0,0,0,0,0c0,0,0,0,0,0v0c0,0-0.1,0-0.2,0c0.1,0,0.1,0,0.2,0c0.1,0.1,0,0.2,0,0.2c-0.1,0-0.1-0.2-0.3,0c0.2,0.2-0.4,0.3,0.1,0.2
		c-0.1,0.2-0.2,0.1-0.4,0.3c0.2,0.1,0.2,0.6,0.1,0.7c0-0.1-0.1-0.1-0.2-0.1l0,0c0,0,0,0,0,0c-0.4,0.3-0.7,0.3-1.1,0.5
		c-0.1,0-0.3,0-0.3-0.1c0,0.1,0,0.2-0.1,0.2c-0.4-0.1,0.2-0.2-0.1-0.3c0.1,0.1-0.2,0.3-0.3,0.5c0.2,0.2,0.4-0.2,0.5-0.3
		c0.2,0.3,0.2,0.7-0.2,1.1c-0.3,0.2-0.3-0.1-0.3,0c-0.3,0.1-0.4,0.3-0.5,0.5c-0.1,0.2-0.1,0.3-0.5,0.3c-0.3-0.1-0.2-0.4-0.3-0.5
		c0.3-0.2,0.5-0.1,0.7-0.1l-0.3,0c0.1-0.1,0.2-0.2,0.3-0.2c-0.1,0-0.4,0.1-0.7,0.2c-0.2,0.1-0.3,0.1-0.5,0.2c-0.2,0-0.3,0.1-0.5,0.1
		c-0.1,0.1-0.2,0.2-0.1,0.3l0.2-0.1c0.2,0.1-0.3,0.3,0,0.3c-0.2,0.2-0.4,0.4-0.8,0.4l-0.1-0.2c0,0.1,0.3,0.1,0.3,0
		c-0.1,0.1-0.6-0.2-0.7,0.1c0,0,0.1,0,0.1,0.1c0.1,0,0.1,0.1,0.1,0.1c-0.2,0.2-0.6,0.4-0.9,0.3c0.2,0.2,0.1,0,0.3,0.2
		c-0.1-0.2,0.1-0.2,0.3-0.2c0.2,0,0.4,0,0.2-0.2c0.3,0.3,0.4,0.1,0.8,0.3c0-0.1-0.1-0.1,0.1-0.1c0,0,0-0.1,0-0.1c0,0,0,0,0,0l0,0
		c0,0,0,0,0,0c-0.1,0-0.1,0-0.2-0.1c0.1-0.2,0.5-0.3,0.6-0.4c0.2,0,0,0.1,0.1,0.2c0,0,0,0,0.1-0.1c0,0,0.1-0.1,0.1-0.1
		c0.1,0.2,0.5,0.1,0.2,0.3l0.3-0.1c0.2,0,0.5,0,0.6-0.2c0.2,0,0.3-0.3,0.2-0.2c0,0,0.1-0.1,0.2-0.2c0.1-0.1,0.2-0.2,0.2-0.2l0,0
		c0.5-0.2,0.7-0.7,1.4-0.8c-0.1,0.1-0.1,0.2-0.3,0.2c0.2,0,0.3-0.1,0.4-0.2c0,0-0.1,0-0.1,0c0.1-0.1,0.2-0.3,0.5-0.4l0.2,0.1
		c0.1-0.2,0.6-0.2,0.6-0.4c0.5,0.2,0.9-0.5,1.2-0.7l-0.1-0.1c0.2-0.1,0.3-0.3,0.5-0.6l-0.2-0.1c0.1-0.3,0.6-0.3,0.9-0.6
		c0,0.1-0.1,0.1-0.1,0.1c0.7,0,0.6-0.8,1.1-0.9c0-0.1,0.1-0.2,0.2-0.2c0,0,0,0,0,0c0,0,0,0,0,0c0.1,0,0.1,0,0.2,0
		c-0.1,0-0.1,0-0.2,0c0.1-0.1,0.1-0.2,0.2-0.3l0.2,0.1c0,0,0,0,0,0c0.1,0,0-0.1-0.2-0.2c0-0.1,0-0.1,0-0.2c0.3,0.1,0.1-0.3,0.5-0.2
		c-0.1-0.2,0.3-0.5,0.1-0.8c0,0,0.1,0,0,0.1c0.1-0.1,0.3-0.2,0.2-0.3l0.3,0.1c0,0,0-0.1-0.1-0.2c0-0.1-0.1-0.2-0.1-0.2
		c0.2-0.1,0.4-0.1,0.4,0.2c0-0.5,0.1-0.3,0-0.8l0.1,0.1c0.1-0.1,0-0.4,0.1-0.4c0.2-0.1,0.4-0.4,0.6-0.8c0.2-0.4,0.3-0.9,0.5-1.2
		c-0.5,0.1,0.3-0.3-0.1-0.4c0.1,0,0.2-0.1,0.3,0c-0.1-0.4,0.2-0.6-0.1-0.9c0.1-0.1,0.2,0.1,0.3,0c0,0-0.1-0.1-0.1-0.2
		c0.1,0,0.1,0.1,0.2,0.1C34.5,51.5,34.1,51.5,33.7,51.5z M31.4,47.5L31.4,47.5C31.4,47.4,31.4,47.4,31.4,47.5z M28.4,51.6
		c0.1-0.2,0.1-0.1,0.3-0.1C28.6,51.5,28.4,51.7,28.4,51.6z M28.9,49.9C28.9,49.9,28.9,49.9,28.9,49.9c0-0.1,0.1-0.2,0.1-0.2
		C29,49.8,29,49.9,28.9,49.9z M32.8,51.9c-0.1,0,0-0.1,0-0.2C32.9,51.7,32.9,51.8,32.8,51.9z M23.8,63.3
		C23.8,63.3,23.8,63.3,23.8,63.3C24,63.3,23.9,63.3,23.8,63.3z"/>
	<path class="st0" d="M19.2,62.8L19.2,62.8c0.1,0.1,0.2,0.1,0.1,0C19.3,62.9,19.2,62.8,19.2,62.8z"/>
	<path class="st0" d="M20.7,63.4c-0.1,0.2,0.1,0.1,0.3,0.1C21,63.3,20.9,63.4,20.7,63.4C20.7,63.4,20.7,63.4,20.7,63.4z"/>
	<path class="st0" d="M20.5,63.4c0,0.1,0.1,0,0.2,0C20.6,63.4,20.6,63.4,20.5,63.4z"/>
	<path class="st0" d="M23,63.6c-0.1,0,0,0.2-0.1,0.2C22.9,63.9,23.4,63.3,23,63.6z"/>
	<polygon class="st0" points="21.1,63 20.9,63 21,63.2 	"/>
	<path class="st0" d="M22.2,63l-0.3,0c0,0,0,0.1-0.1,0.1c-0.1,0-0.2,0-0.2,0.1c0,0,0.1,0,0.2-0.1c0,0,0,0,0,0C22,63,22.2,63,22.2,63
		z"/>
	<polygon class="st0" points="21.5,62.9 21.2,62.9 21.3,62.9 	"/>
	<path class="st0" d="M24.8,61.9c0,0.1-0.1,0.1,0,0.2l0.2-0.2C25,61.8,24.9,61.8,24.8,61.9z"/>
	<path class="st0" d="M23.7,62c0.1,0,0.1,0,0.2,0.1l-0.1-0.2L23.7,62z"/>
	<path class="st0" d="M24.3,61.4c0,0.1-0.2,0.2,0.1,0.2C24.4,61.5,24.6,61.3,24.3,61.4z"/>
	<polygon class="st0" points="27.8,59.6 27.8,59.7 28.1,59.9 	"/>
	<path class="st0" d="M29.5,57.1c0,0.1,0.2-0.1,0.3,0c0-0.2,0.2-0.2-0.1-0.3C29.4,57,29.8,57,29.5,57.1z"/>
	<path class="st0" d="M29.3,51.8c0-0.1-0.1-0.1-0.2-0.1L29.3,51.8L29.3,51.8z"/>
	<polygon class="st0" points="8,37.5 8.1,37.4 8,37.5 	"/>
	<path class="st0" d="M8.3,37.4L8.3,37.4l-0.1,0.2c0.2,0,0.3-0.2,0.5-0.1C8.6,37.2,8.5,37.5,8.3,37.4z"/>
	<path class="st0" d="M9.1,38C9.1,38,9.1,38,9.1,38C9.1,38,9.1,38,9.1,38C9.1,37.9,9.3,37.9,9.1,38z"/>
	<path class="st0" d="M9.1,38C9,38,9.2,38.1,9.1,38L9.1,38z"/>
	<path class="st0" d="M9.4,38c0,0.1,0.1,0.1,0.1,0.1C9.6,38.1,9.5,38,9.4,38L9.4,38z"/>
	<path class="st0" d="M9.5,37.8L9.5,37.8C9.5,37.8,9.5,37.8,9.5,37.8z"/>
	<path class="st0" d="M9.4,37.8C9.4,37.8,9.4,37.8,9.4,37.8L9.4,37.8C9.5,37.8,9.5,37.7,9.4,37.8z"/>
	<path class="st0" d="M9.3,37.7c-0.2,0-0.1,0.2,0,0.2C9.3,37.8,9.2,37.8,9.3,37.7z"/>
	<path class="st0" d="M8.6,37.2c0,0,0.2,0.1,0.1,0L8.6,37.2L8.6,37.2z"/>
	<path class="st0" d="M10,37.9c0,0,0.1,0.1,0.1,0.2C10.1,38,10,37.9,10,37.9L10,37.9z"/>
	<path class="st0" d="M10,37.9L10,37.9C10,37.8,10,37.8,10,37.9z"/>
	<polygon class="st0" points="9.4,37.7 9.6,37.5 9.5,37.5 	"/>
	<polygon class="st0" points="10.5,38.2 10.6,38 10.5,38.1 	"/>
	<path class="st0" d="M10.8,38c0,0.1,0.1,0.2,0,0.2c0.1,0,0.1-0.1,0.2-0.2C11,38.1,10.9,38.1,10.8,38z"/>
	<path class="st0" d="M10.4,37.8L10.4,37.8C10.4,37.8,10.3,37.8,10.4,37.8c0,0,0,0.1,0.1,0.2L10.4,37.8
		C10.4,37.8,10.4,37.8,10.4,37.8C10.4,37.8,10.4,37.8,10.4,37.8z"/>
	<path class="st0" d="M9.8,37.6c0.1-0.1,0.2-0.2,0-0.3C9.8,37.4,9.9,37.5,9.8,37.6z"/>
	<path class="st0" d="M10.1,37.6c0,0,0,0.1,0,0.1l0.1-0.1L10.1,37.6z"/>
	<polygon class="st0" points="10.3,37.6 10.3,37.5 10.2,37.6 	"/>
	<path class="st0" d="M10.9,37.8c0-0.1,0.1-0.1,0.2-0.1c-0.1,0-0.1,0-0.2,0C10.8,37.8,10.8,37.8,10.9,37.8z"/>
	<path class="st0" d="M10.8,37.7c-0.1,0-0.1,0-0.1,0.1C10.8,37.7,10.8,37.7,10.8,37.7C10.8,37.7,10.8,37.7,10.8,37.7z"/>
	<path class="st0" d="M11.3,37.9C11.2,37.9,11.2,37.8,11.3,37.9C11.2,37.9,11.3,37.9,11.3,37.9z"/>
	<path class="st0" d="M10.7,37.8C10.7,37.8,10.7,37.8,10.7,37.8C10.7,37.9,10.7,37.9,10.7,37.8z"/>
	<path class="st0" d="M10.6,37.8C10.6,37.8,10.7,37.8,10.6,37.8C10.7,37.8,10.7,37.8,10.6,37.8C10.7,37.7,10.7,37.8,10.6,37.8z"/>
	<path class="st0" d="M11.7,36.7c0,0.1-0.1,0.3-0.2,0.1c-0.1,0.1,0,0.6,0.2,0.8l0,0l0,0c0,0,0,0,0,0c0-0.1,0-0.1,0.1-0.2
		c0-0.1-0.3-0.2-0.2-0.3c0.1-0.1,0.1,0,0.2,0.1c-0.1-0.2,0.2-0.3,0.1-0.5l-0.1,0.1C11.7,36.8,11.8,36.8,11.7,36.7z"/>
	<path class="st0" d="M11.4,37.7L11.4,37.7c0,0,0.1,0.1,0.1,0.2c0.1-0.1,0.1-0.1,0.1-0.2L11.4,37.7L11.4,37.7z"/>
	<path class="st0" d="M11.2,37.7c0-0.2,0.1-0.2,0-0.4c-0.1,0-0.1,0.1-0.2,0.2C11.3,37.5,11,37.6,11.2,37.7c0,0-0.1,0-0.1,0
		C11.1,37.8,11.1,37.8,11.2,37.7L11.2,37.7L11.2,37.7L11.2,37.7C11.1,37.8,11.1,37.8,11.2,37.7C11.2,37.8,11.2,37.8,11.2,37.7
		C11.2,37.8,11.2,37.7,11.2,37.7C11.2,37.8,11.2,37.8,11.2,37.7L11.2,37.7L11.2,37.7l0.2,0C11.3,37.7,11.3,37.7,11.2,37.7z"/>
	<path class="st0" d="M10.2,37.4c0-0.1-0.1-0.2-0.2-0.4c0,0,0,0.1-0.1,0.1c-0.1,0,0-0.1,0-0.1c0,0-0.1,0.1,0,0.2l0,0
		C10.1,37.2,10.2,37.4,10.2,37.4z"/>
	<path class="st0" d="M10.7,37.1L10.7,37.1c-0.1,0.1-0.1,0.2-0.1,0.2l0.2-0.1L10.7,37.1z"/>
	<polygon class="st0" points="11.7,38 11.8,37.7 11.7,37.8 	"/>
	<polygon class="st0" points="11.9,37.9 12,37.8 11.9,37.8 	"/>
	<path class="st0" d="M18.1,37.8l0-0.2c-0.1,0-0.1,0-0.1,0C18.1,37.8,18.2,38,18.1,37.8z"/>
	<path class="st0" d="M21.9,36.7c0,0,0-0.1,0.1-0.1l0,0C21.9,36.6,21.9,36.6,21.9,36.7z"/>
	<path class="st0" d="M27.7,35.4l0-0.2C27.7,35.2,27.7,35.3,27.7,35.4z"/>
	<path class="st0" d="M14.4,37.7c0.1,0.1,0.1,0.1,0.2,0.1C14.5,37.7,14.5,37.5,14.4,37.7z"/>
	<path class="st0" d="M14.8,37.7c0,0-0.1,0-0.2,0C14.7,37.8,14.8,37.9,14.8,37.7C14.8,37.7,14.8,37.7,14.8,37.7z"/>
	<path class="st0" d="M12.9,37.8C12.8,37.8,12.8,37.8,12.9,37.8C12.8,37.9,12.8,37.9,12.9,37.8z"/>
	<path class="st0" d="M12.9,37.8C12.9,37.8,13,37.8,12.9,37.8C13,37.8,12.9,37.8,12.9,37.8C12.9,37.8,12.9,37.8,12.9,37.8z"/>
	<path class="st0" d="M31.5,35.8C31.5,35.8,31.5,35.8,31.5,35.8C31.5,35.8,31.5,35.8,31.5,35.8z"/>
	<path class="st0" d="M19.1,36l0.1,0.5l0.1-0.6C19.2,36,19.2,36,19.1,36z"/>
	<path class="st0" d="M38.7,36.4L38.7,36.4c0-0.2-0.3-0.5-0.4-0.9c-0.1,0.3-0.4-0.4-0.6,0c-0.1-0.1,0-0.1,0-0.2
		c0,0.2-0.1,0.2-0.2,0.1l0,0c-0.4,0.1-0.5-0.1-0.9-0.2l0.1,0.2c-0.1,0-0.1-0.1-0.2-0.1c-0.1,0.3,0.2,0,0.2,0.3
		c-0.2-0.3-0.6,0-0.7-0.4c-0.1,0,0.1,0.2-0.1,0.2l0-0.1l0,0.1c-0.1,0-0.2-0.2-0.2-0.2c0,0,0.1,0,0.1,0c-0.1-0.1-0.3,0.1-0.4,0
		l0.1,0.1c-0.3,0.1-0.8,0-1.1,0.2l0,0.1c-0.2,0.2-0.2-0.1-0.5,0l0,0c0,0.1-0.1,0.1-0.2,0.1c0.1-0.1-0.2-0.2-0.1-0.3
		c-0.3,0.2-0.1,0.1-0.3,0.4l-0.1-0.1c0,0.1,0,0.2-0.2,0.2c0.1-0.1-0.1-0.2,0-0.4c-0.4-0.3-0.4,0.3-0.6-0.1c-0.1,0.4,0.3,0.2,0.2,0.3
		c0.1,0.1-0.1,0.3-0.2,0.2c-0.1,0-0.2-0.5-0.5-0.5c0,0,0,0,0,0c-0.1-0.1-0.2,0.1-0.3,0c0,0.2-0.2,0-0.1,0.3l0.2-0.1
		c-0.1,0.1-0.2,0.4-0.4,0.3c0-0.1,0.1-0.1,0.1-0.2c-0.1-0.1-0.1,0.1-0.2,0c0-0.3,0.3-0.1,0.4-0.3c-0.1-0.1-0.2,0.2-0.2-0.1
		c0,0.4-0.3,0-0.4,0.3l0-0.2c0,0-0.1,0.1-0.1,0.1l0.1-0.2c-0.1,0.2-0.3-0.2-0.4,0c0.3,0,0.1,0.2,0.2,0.3c-0.3,0.2-0.3-0.4-0.6-0.3
		c0,0,0.2,0.1,0.1,0.2c-0.1,0-0.2-0.1-0.2-0.2c-0.2,0,0.1,0.2,0,0.3c-0.1-0.2-0.1,0.1-0.2,0.2l0-0.2c-0.3-0.1,0,0.4-0.3,0.2l0.1-0.2
		l-0.1,0.1l0-0.2c-0.1,0.2-0.2,0.1-0.3,0.1c0,0.1,0,0.3-0.1,0.3c-0.1-0.1,0-0.2-0.2-0.1c0-0.1,0.1-0.2,0.2-0.1c0-0.1,0-0.1,0-0.2
		c-0.1-0.1-0.2,0-0.3,0c0,0,0.1,0,0.1,0l-0.2,0.3c0-0.1,0-0.1,0-0.2c-0.1,0-0.1,0.1-0.2,0.1c0-0.1,0-0.3,0.1-0.4l-0.2,0.2
		c0-0.1-0.1-0.2-0.1-0.2c-0.1-0.1-0.3,0.3-0.5,0.2c0,0,0,0.1-0.1,0.1c-0.2,0-0.3-0.2-0.5,0L27,35.3c-0.2,0.1,0.2,0.3-0.1,0.4
		c-0.2,0.1-0.1-0.2-0.2-0.3c-0.1,0.1-0.2,0.4-0.4,0.2c0.1-0.1,0.1,0,0.2,0l-0.1-0.1c0.1-0.2,0.3-0.2,0.1-0.4c0,0.5-0.5,0.1-0.5,0.6
		l-0.1-0.1c0,0,0,0,0,0c-0.2-0.2-0.1,0.4-0.3,0.3c-0.1,0-0.1-0.1-0.1-0.2l-0.2,0.1c0,0,0-0.1,0-0.1l-0.3,0v0c0,0.1-0.1,0.2-0.1,0.3
		c-0.1-0.1,0-0.1,0-0.1L24.9,36c-0.1-0.1,0-0.3,0.1-0.2c-0.2-0.5-0.1,0.1-0.4-0.1l0.1-0.1c-0.1-0.3-0.2-0.2-0.4-0.3
		c0,0.1,0.4,0.4,0.2,0.6c0,0-0.1-0.1-0.2,0.1c0-0.2-0.1-0.1-0.2-0.1l0-0.2c-0.1,0.1-0.1,0.2-0.1,0.3c-0.1,0-0.2-0.2-0.2-0.3
		c-0.2,0,0.2,0.3-0.1,0.3c-0.2-0.1-0.3,0-0.5,0.2c-0.1-0.1,0-0.1,0-0.2l-0.1,0.2c0,0,0-0.1,0-0.1c-0.1,0.1,0,0.2-0.1,0.3
		c0,0.3-0.3-0.4-0.5-0.1c0-0.1,0-0.1,0-0.2c-0.2,0.2-0.2,0.1-0.3,0.4L22.1,36c0.1,0.2,0,0.4-0.1,0.6c0.1,0.1,0.1,0.2,0.1,0.2
		l-0.2,0.1c0,0,0-0.1,0-0.2c0,0,0,0,0,0.1c-0.1-0.1-0.1-0.2,0-0.3c0,0,0.1,0.1,0.1,0.1c0-0.1,0.1-0.3,0-0.4c0,0,0,0.1-0.1,0.1
		c0,0,0-0.1,0-0.1c0,0,0,0-0.1,0.1l-0.1-0.3l0,0.1l-0.3-0.2c-0.2,0.3-0.3,0.7-0.6,0.8c0.1-0.2,0-0.3,0-0.5c0.1,0.2,0.2-0.1,0.4-0.1
		c-0.1,0-0.1-0.1-0.1-0.2l-0.3,0.2c0-0.2-0.1-0.1-0.2-0.2c0.1,0.4-0.2,0.2-0.3,0.4c0-0.1,0-0.2,0.1-0.2c-0.2-0.3-0.2,0.4-0.3,0.2
		c0,0,0.1,0,0.1,0c-0.1,0.1-0.3,0-0.2-0.1l0,0c-0.2,0-0.7,0-0.7,0.3c0,0,0-0.4,0-0.4l-0.3,1c0-0.3-0.2-0.9,0-1l0,0l0,0c0,0,0,0,0,0
		l0,0c-0.1,0-0.1-0.1-0.2,0c0,0,0.1,0.4,0.1,0.4c-0.2-0.3-0.1-0.2-0.3-0.4c0.1,0.1,0.1,0.5,0,0.5c0-0.1-0.1-0.4,0-0.5l-0.2,0.4
		c0-0.1,0-0.3-0.1-0.5c0,0.1-0.2,0-0.2,0l0.1,0.1c-0.3-0.1-0.2,0.6-0.4,0.6c0-0.1,0-0.5-0.1-0.6c0,0.2-0.1,1-0.3,1.2l-0.1-0.1
		l-0.2,0.1c0.1-0.3,0.3-1,0.4-1.2c-0.1-0.1,0-0.1-0.2-0.1c-0.1-0.1,0.1-0.2,0.1-0.2l-0.3-0.1c0,0.2-0.2,0.2-0.2,0.5l0.3-0.3
		c0,0.2-0.1,0.7-0.4,0.7c-0.1-0.1,0-0.4,0-0.5c0,0.1-0.2,0.2-0.2,0.1l0.1-0.1c-0.1-0.1-0.2,0.3-0.4,0.1c-0.1,0-0.2-0.3-0.2-0.2
		c0.1,0.3,0.2,1.1,0.2,1.3c0,0-0.3-0.3-0.4-0.4c-0.1-0.2,0.1-0.5,0-0.7c0,0.1,0,0.1-0.1,0.2c-0.1-0.1,0-0.2-0.1-0.2
		c0,0.2-0.2,0,0,0.2c-0.1,0.1-0.1,0-0.3,0c0.1,0.2-0.1,0.5-0.2,0.6c0-0.1,0-0.1-0.1-0.2c-0.2,0-0.4-0.1-0.6-0.1
		c0-0.1-0.1-0.1-0.1-0.2c0,0,0,0.1-0.1,0.1c-0.2-0.2,0.2,0,0-0.3c0,0.1-0.2,0.2-0.2,0.3c0.1,0.2,0.2,0,0.3-0.1
		c0,0.3-0.1,0.6-0.3,0.8c-0.2,0.1-0.1-0.2-0.1-0.2c-0.4,0-0.2,0.5-0.6,0.3c-0.1-0.2,0-0.4-0.1-0.5c0.1-0.1,0.2,0.1,0.4,0.1l-0.1-0.1
		c0-0.1,0.1-0.1,0.2-0.1c-0.1-0.2-0.6,0-0.9-0.2c0,0.1-0.1,0.1-0.1,0.2l0.1,0c0.1,0.2-0.1,0.2,0,0.3c-0.1,0.1-0.2,0.3-0.4,0.2
		l-0.1-0.2c0,0,0.1,0.1,0.1,0.1c-0.1,0-0.2-0.3-0.3,0l0.1,0.2c-0.1,0.1-0.2,0.4-0.4,0.3c0.1,0.2,0,0,0.2,0.2c-0.1-0.3,0.4,0,0.2-0.3
		c0.1,0.3,0.2,0.1,0.4,0.4c0-0.1-0.1-0.1,0.1-0.1c0,0,0,0,0-0.1c0,0,0,0,0,0l0,0c0,0,0,0,0,0c0,0-0.1-0.1-0.1-0.1
		c0-0.2,0.2-0.2,0.3-0.3c0.1,0,0,0.1,0,0.2l0.1-0.1c0,0.2,0.2,0.3,0.1,0.4l0.2,0c0.1,0.1,0.2,0.1,0.3,0.1c0.1,0,0.2-0.2,0.1-0.1
		l0.2-0.1l0,0c0.2,0,0.5-0.3,0.8,0c0.1,0,0.2-0.1,0.3-0.1l0,0.1c0.1-0.1,0.3,0.1,0.4,0c0.2,0.4,0.5,0.1,0.7,0.1l0-0.2
		c0.1,0,0.2,0,0.4-0.1l0-0.2c0.1-0.1,0.4,0.1,0.6,0.1c0,0.1-0.1,0-0.1,0c0.3,0.4,0.5-0.3,0.8,0c0-0.1,0.1,0,0.1,0c0,0,0,0,0,0
		c0,0,0,0,0,0c0,0,0.1,0.1,0.1,0.1c0,0-0.1-0.1-0.1-0.1c0,0,0.1,0,0.2-0.1l0,0.2c0,0,0,0,0,0c0.1,0.1,0-0.1,0-0.2
		c0,0,0.1-0.1,0.1-0.1c0.1,0.3,0.2-0.1,0.3,0.2c0-0.1,0.3-0.1,0.3-0.4c0,0,0,0.1,0,0.1c0.1,0,0.2,0.1,0.2,0l0.1,0.2l0.1-0.3
		c0.1,0.1,0.2,0.2,0.1,0.4c0.2-0.3,0.2-0.1,0.3-0.4l0,0.1c0.1,0,0.2-0.2,0.2-0.1c0.2,0.3,0.8,0,1.2,0.3c-0.1-0.4,0.2,0.2,0.2-0.1
		c0,0.1,0.1,0.2,0,0.2c0.2-0.1,0.3,0.1,0.4-0.1c0,0.1,0,0.1,0,0.2c0,0,0.1-0.1,0.1,0c0,0.1,0,0.1,0,0.1c0.2,0,0.2-0.3,0.2-0.6
		c0.1,0.1,0.2,0.1,0.2-0.1c0,0.1,0.1,0.2,0,0.2c0.1,0,0.5,0.1,0.4-0.1c0,0.1,0.1,0,0.1,0c0.2,0,0.2,0,0.3,0l0,0
		c0-0.3,0.1-0.1,0.3-0.1v0c0.3,0.2,0.1-0.1,0.4,0.1l0-0.2c0-0.4,0.3,0.2,0.4,0.1L24,36.9c0.1-0.1,0.3,0.5,0.4,0.5c0,0,0,0.1-0.1,0.1
		c0.3,0.2,0-0.2,0.2-0.3c0,0.1,0,0.3,0.1,0.3c0.1,0.1,0.3-0.4,0.5-0.2c0-0.1-0.1-0.2,0-0.3c0.1,0,0.4,0.3,0.5,0c0,0,0,0,0,0.1
		c0.1-0.1,0.3-0.1,0.3-0.3c0.2,0.6,0.6-0.3,0.7,0.2l0.3,0l0,0.1c0.2,0,0.3-0.1,0.3-0.2c0.1,0,0,0.1,0,0.1c0.3,0.1,0.3,0.1,0.5-0.2
		l0,0.2c0.1-0.1,0.5,0.3,0.7,0c0,0,0,0.1,0,0.1c0.3-0.2,0.8,0.5,0.8-0.2l0.2-0.2c-0.3,0,0-0.3-0.1-0.4c0.1,0,0.3,0.2,0.2,0.2l0,0
		c0,0.3,0.4,0.1,0.4,0.3c0.5,0,1.1,0.1,1.6,0.1l-0.1-0.3l0.2,0c0.1,0.1,0.1,0.2,0,0.2c0.1,0.1,0.2-0.1,0.2-0.2
		c0.3,0.1-0.1,0.3,0,0.3l0.1,0l0,0c0.1-0.1,0.1-0.2,0.2-0.2c0.1,0.1,0.1,0.2,0.1,0.2c0,0,0,0,0.1,0l0.2,0l-0.1-0.2
		c0.1-0.1,0.2,0,0.1-0.2c0.2,0.4,0.8,0.1,0.9,0.2c0.1-0.2,0.2-0.2,0.4-0.1c0,0-0.1-0.3,0-0.3c0,0.5,0.3,0.2,0.5,0.5
		c-0.1-0.2,0.4-0.1,0.2-0.4c0.1,0,0,0.2,0.1,0.3c0.3-0.2,0.6,0.1,1,0c0-0.1-0.1-0.2,0-0.3l0.2,0.3c0.1,0,0-0.4,0.2-0.2
		c0-0.1-0.1-0.1,0-0.2c0.7,0.3,1.4-0.3,2.1,0.2c-0.1-0.1-0.1-0.1,0-0.1c-0.1,0,0-0.2,0-0.2l0.3,0.2C38.4,36.5,38.7,36.7,38.7,36.4z
		 M13.5,37.7C13.5,37.7,13.5,37.7,13.5,37.7C13.6,37.7,13.5,37.7,13.5,37.7z M21.6,36.3c0-0.1,0.1,0,0.1,0
		C21.7,36.3,21.7,36.3,21.6,36.3z M24.6,35.7c0,0,0.1-0.2,0.1-0.1C24.7,35.9,24.6,35.8,24.6,35.7z M32.2,37L32.2,37
		C32.2,36.9,32.2,36.9,32.2,37z"/>
	<path class="st0" d="M12.6,37.2C12.6,37.2,12.6,37.2,12.6,37.2C12.6,37.2,12.6,37.2,12.6,37.2z"/>
	<path class="st0" d="M27.7,35.4C27.7,35.4,27.7,35.4,27.7,35.4L27.7,35.4C27.7,35.4,27.7,35.4,27.7,35.4z"/>
	<path class="st0" d="M12.4,37.9l0.1,0c-0.1,0-0.1,0-0.1-0.1C12.4,37.9,12.4,37.9,12.4,37.9z"/>
	<path class="st0" d="M11.3,36.9C11.3,36.9,11.3,36.9,11.3,36.9l0,0.1C11.3,37,11.4,36.9,11.3,36.9z"/>
	<path class="st0" d="M12.2,37.3c0-0.1-0.1-0.1-0.2-0.1c0,0,0,0,0,0C12.1,37.5,12.2,37.4,12.2,37.3z"/>
	<path class="st0" d="M12,37.3C12,37.3,12,37.3,12,37.3C12,37.4,12,37.3,12,37.3z"/>
	<path class="st0" d="M13.1,37.7c0,0,0,0.2,0,0.1C13,38,13.3,37.6,13.1,37.7z"/>
	<polygon class="st0" points="12.2,36.9 12.1,36.9 12.2,37 	"/>
	<path class="st0" d="M12.6,37c0.1,0,0.2,0,0.2,0L12.6,37C12.6,37,12.6,37,12.6,37z"/>
	<polygon class="st0" points="12.4,36.9 12.3,36.8 12.3,36.8 	"/>
	<path class="st0" d="M14.2,36.9c0,0-0.1,0.1,0,0.1L14.2,36.9C14.3,36.9,14.2,36.8,14.2,36.9z"/>
	<path class="st0" d="M13.7,36.6l0-0.2l-0.1,0.1C13.7,36.5,13.7,36.6,13.7,36.6z"/>
	<path class="st0" d="M14,36.4c0-0.1,0.2-0.2,0-0.2C14,36.3,13.9,36.4,14,36.4z"/>
	<polygon class="st0" points="16.1,36.7 16.1,36.7 16.2,37 	"/>
	<path class="st0" d="M17.9,35.7c-0.2-0.1,0,0.2-0.2,0.1c0,0.1,0.1,0.1,0.1,0.2C17.9,35.9,17.9,36,17.9,35.7z"/>
	<polygon class="st0" points="38.6,36.9 38.7,37 38.6,36.8 	"/>
	<path class="st0" d="M24.3,35.4l-0.1-0.1L24.3,35.4C24.2,35.4,24.3,35.4,24.3,35.4z"/>
	<polygon class="st0" points="25.7,35.6 25.7,35.4 25.6,35.4 	"/>
	<path class="st0" d="M26.8,35.1c0,0-0.1,0-0.2,0C26.8,35.1,26.9,35.4,26.8,35.1z"/>
	<path class="st0" d="M23.5,31.8c3.4,0,5.4-1,6.4-1c0.2,0,0.4,0.1,0.6,0.2c0.2,0.3,0.2,0.7,0.2,0.7h0.6v-8c0-0.9,0.1-1.9,1.3-1.9
		c0.7,0,1,0.5,1,0.9c0,0.5-0.3,0.8-0.6,0.8c-0.4,0-0.6-0.3-0.6-0.6c0-0.2,0.1-0.3,0.2-0.3c0.2,0,0.3,0.3,0.2,0.4l0.1,0
		c0.1-0.1,0.2-0.2,0.2-0.4c0-0.3-0.2-0.5-0.6-0.5c-0.4,0-0.7,0.3-0.7,0.7c0,0.6,0.4,1,1,1c0.9,0,1.3-0.6,1.3-1.3
		c0-0.7-0.5-1.3-1.4-1.4v-0.7h-7v0.7c-0.9,0.1-1.4,0.7-1.4,1.4c0,0.7,0.4,1.3,1.3,1.3c0.7,0,1-0.4,1-1c0-0.4-0.3-0.7-0.7-0.7
		c-0.3,0-0.6,0.2-0.6,0.5c0,0.2,0.1,0.3,0.2,0.4l0.1,0c0-0.2,0-0.4,0.2-0.4c0.2,0,0.2,0.1,0.2,0.3c0,0.3-0.2,0.6-0.6,0.6
		c-0.3,0-0.6-0.3-0.6-0.8c0-0.5,0.3-0.9,1-0.9c1.2,0,1.3,1.1,1.3,1.9v6.7c0,0-1.7,0.5-3.4,0.5c-5.5,0-7.7-4.9-7.7-9.2
		c0-5.8,2.4-9.6,7.5-9.6c3.4,0,6.1,1.2,6.6,5.5h0.6l-0.2-6.3h-0.6c0,0,0,1.2-0.7,1.2c-0.9,0-2.2-1.5-6.1-1.5
		c-7,0-10.6,4.7-10.6,10.6C12.6,27.9,17.1,31.8,23.5,31.8z M27.3,21.7c-0.1-0.2-0.3-0.4-0.5-0.5h4.9c-0.2,0.1-0.4,0.3-0.5,0.5h-0.9
		v8.2l-0.7,0v-8.1h-0.8l0,8.2c-0.1,0-0.6,0.1-0.7,0.1v-8.3H27.3z"/>
	<path class="st0" d="M44.8,36.6c0-0.1-0.1-0.2-0.1-0.4c0-0.5,0.1-0.9,0.1-1.4c0-0.5-0.1-1-0.3-1.6c0,0,0.1-0.2,0.2-0.3
		c0.1-0.2,0.2-0.3,0.2-0.3c-0.2-0.9-0.4,0.9-0.7-0.6c-0.3-1.1,0.3-0.4,0.3-0.8c-0.2-0.5-0.8-1.4-0.6-2.4c0.1,0.3,0.1,0.6,0.2,0.9
		l0.1-0.8c0.5,0.9,0.5,1.5,0.7,0.8c-0.4,0-0.5-0.8-0.7-1.5c-0.2-0.7-0.3-1.4-0.7-1.4c0,0,0-0.1,0-0.3c0-0.1,0-0.3,0-0.3
		c0,0.1,0.1,0.2,0.1,0.3c0.1-1-0.7-0.6-0.9-1.8c-0.1-0.4,0-0.7,0.1-0.5l-0.4-0.9c-0.1-0.3,0.1-0.2,0.1,0c0,0-0.1-0.4-0.2-0.7
		C42.1,22.3,42,22,42,22l0,0c-0.2-0.2-0.5-0.6-0.6-0.8c0-0.4,0.1,0.2,0.2,0c0,0-0.1-0.2-0.2-0.4c-0.1-0.2-0.2-0.4-0.2-0.4
		c0.1-0.4,0.5,0.2,0.6,0.8c0.5-0.9-0.4-0.6-0.5-2.3l0.3,0.7c0.2-0.6-0.1-1.1-0.2-2.1c0,0.2,0,1.9-0.5,1.1c0-0.3-0.1-0.6-0.4-1
		c0.2-0.1,0-0.5-0.2-1.1l0.3-0.1c-0.3-0.6-0.5-0.4-0.8-0.7c-0.3-0.7-0.1-0.9,0.1-1.2c-0.4-1.1,0,0.9-0.7-0.3
		c-0.3-0.9-0.7-1.5-1.4-2.3c-0.2-0.6,0.2,0,0.2-0.3l-0.5-0.4c-0.1-0.1,0-0.1,0.1-0.1c-0.3-0.4-0.3,0.1-0.8-0.5
		c-0.4,0-0.3-1.7-1.2-2.2c-0.1-0.3,0.2,0,0.3-0.2c-1-0.9-0.8-0.8-1.7-1.4c0,0-0.1-0.2-0.2-0.4c-0.1-0.2-0.2-0.4-0.2-0.4
		c0.3,0.7-0.5,0.3-1.1,0c0.1,0.3,0.2,0.5,0.2,0.6c0,0-0.2-0.2-0.4-0.3c-0.2-0.2-0.4-0.3-0.4-0.3c-0.1-0.1,0.1-0.2,0.3-0.2
		C32.1,6.1,32,6,32,6c-0.2-0.4,0-0.4,0.4-0.4c0.1,0.2,0.1,0.3,0.2,0.5c0.1,0,0.1,0,0.2,0c0,0,0.1,0,0.1,0c0,0,0,0,0-0.1
		c0.2,0,0.4-0.1,0.4-0.2c-0.1,0-0.2-0.1-0.3-0.2c0.1,0,0.2,0,0.1-0.1c0-0.1-0.1-0.1-0.3-0.1l0-0.5L32.6,5c0,0-0.1-0.1-0.2-0.2
		c-0.1-0.1-0.2-0.3-0.4-0.4c-0.3-0.3-0.6-0.6-0.6-0.6c-1.1-0.3-2.1-0.1-3.5-0.2c0.4-0.2,0.1-0.5,0.2-0.9c0.4,0.5,1.2,0.2,2,0.7
		c-0.4-0.2-0.3-0.4-0.2-0.4c0,0-0.4-0.1-0.8-0.1c-0.4,0-0.7-0.1-0.7-0.1c0.1-0.3-0.3-0.3-0.7-0.5c0.3,0.7-1.1,0.2-1.6,0.4
		c-0.1-0.2,0.1-0.4,0.8-0.3c-0.8-0.6-1,0.6-1.7,0.2c0.2,0,0.3,0,0.3-0.1c-0.4,0.2-1.3,0-1.1-0.2l0.2,0c-0.4,0-0.8,0-1.3,0.1
		c-0.2,0-0.3-0.1-0.5-0.1C22.4,2.1,22,2,21.5,2c0,0,0,0,0,0c0,0,0,0,0,0c-0.3,0-0.7-0.1-1.1,0l0.2,0.3c-0.4,0-0.5,0-0.7-0.1
		c-0.2,0.3,0.1,0.2,0.4,0.2c0.3,0,0.6,0,0.4,0.2c-0.3-0.3-1.1-0.1-1.7,0.1c-0.7,0.2-1.3,0.5-1.6,0.2c-0.6,0.3,0.3,0.2-0.2,0.5
		l-0.2-0.1l0,0.3c-0.4,0.2-0.7,0.1-0.7-0.1c0.1,0,0.2-0.2,0.3-0.3c-0.6,0.1-1.2,0.9-1.4,1c0,0,0.1-0.1,0.3-0.1
		c0.1-0.1,0.3-0.1,0.3-0.1C15,4.5,14.3,5,13.7,5.7c0,0-0.1,0-0.1,0c0,0,0,0.1,0,0.1c-0.3,0.3-0.5,0.6-0.8,0.8
		C12.8,6.4,12.9,6.2,13,6c-0.4,0.1-0.2-0.1-0.8,0.3c-0.3,0,0.1-0.5,0.3-0.6c0,0-0.3,0.2-0.7,0.4c-0.3,0.2-0.6,0.4-0.6,0.4
		c0.3,0.3-0.7,1.1-0.4,1.4l1-1.5c0.3,0.3-0.1,1.7-0.9,2.3c-0.3,0.1-0.3-0.8-0.4-0.9c0,0.2-0.6,1-0.7,1L10,8.3
		C9.5,8.6,9.7,9.4,8.9,9.7c-0.2,0.2-0.9,0.2-0.7,0.4c0.4,0,0.8,0.4,1.2,0.8c-0.3,0.8-0.2,0.6-0.2,1.2c-0.3,0.2-0.6,0.3-0.8,0.4
		c-0.5,0.1-0.3-1.2-0.7-1.1c0.1,0.1,0,0.4,0,0.5c-0.2,0.1-0.2-0.4-0.5,0.2c0.2,0.4-0.7,0.9,0.1,0.5c-0.3,0.5-0.4,0.5-0.8,1
		c0.3,0,0.4,1.2,0.2,1.7c-0.1-0.1-0.2-0.1-0.3-0.1c-0.3,0.5-0.5,0.9-0.8,1.2c-0.2,0.4-0.5,0.8-0.7,1.3c-0.1,0-0.4,0.5-0.5,0.2
		c0,0.2,0,0.4-0.1,0.8C3.9,19,4.6,17.8,4.1,18c0.2,0.2,0,1.1-0.1,1.6c0.4,0.1,0.4-1.1,0.5-1.6C4.8,18.2,5,18.9,5,19.7
		c0,0.1-0.1,0.2-0.2-0.1C5,20.2,4.7,20.5,4.5,21c0,0,0,0,0,0c-0.1,0.3-0.1,0.5-0.2,0.7l-0.1-0.1c0,0.1,0,0.5,0,0.7L4,21.8
		c0,0.5-0.1,0.8-0.3,1.1c0-0.3,0-0.8,0.2-1c-0.4,0.3-0.7,3-1.2,4.3c0,0.1,0,0.1,0,0.2c-0.1,0.5,0,0.5,0.1,0.4c0,0.1,0.1,0.1,0.1,0
		c0,0,0-0.1,0-0.1c0.1-0.1,0.1-0.1,0.1,0.1c-0.4,0.3,0,0.7,0,1.3L2.9,28c-0.4,1.5,0.5,0.6,0.1,1.9c0,0-0.1-0.2-0.1-0.3
		c-0.1-0.2-0.1-0.3-0.1-0.3s0,0.2,0,0.4c0,0.2,0,0.4,0,0.4l-0.3-0.2c0.1,0.9,0,1.1-0.1,1.8c0.2-0.1,0.5,0.2,0.4,0.9
		c-0.2,0.4-0.2-0.3-0.3,0.7c-0.1-0.3-0.3-0.5-0.1-0.9c-0.1-0.1-0.1-0.3-0.2-0.3c-0.2,0.5-0.1,1.3-0.1,1.6c0-0.1,0-0.3,0.1-0.4
		c0,0,0.1,0.4,0.2,0.8c0.1,0.4,0.2,0.7,0.2,0.7c-0.1,0.2-0.2,0-0.2-0.2c0,0.3,0.1,0.5,0.2,0.9c-0.2-0.1-0.4-0.2-0.5-0.8
		c0,0,0,0.4,0.1,0.7c0.1,0.4,0.1,0.7,0.1,0.7C2,36,1.9,36.6,1.8,36.4c-0.1,0.8,0.5,1.9,0.4,2.9c0,0.1,0.1,0.2,0.1,0.4
		c0,0.5,0,0.9,0,1.4c0,0.5,0.1,1,0.3,1.5c0,0-0.1,0.2-0.1,0.3c-0.1,0.2-0.1,0.3-0.1,0.3c0.2,0.9,0.3-0.9,0.7,0.6
		c0.3,1-0.2,0.4-0.3,0.8c0.3,0.5,0.5,1,0.4,2C3,46.4,3,46.1,2.9,45.8l-0.1,0.8c-0.5-0.8-0.5-1.5-0.7-0.8c0.4,0,0.5,0.7,0.7,1.4
		c0.2,0.7,0.4,1.4,0.7,1.4c0,0,0,0.1,0,0.3c0,0.1,0,0.3,0,0.3c0-0.1-0.1-0.1-0.1-0.3c-0.1,1,0.7,0.6,0.9,1.8
		c0.1,0.4,0.1,0.7-0.1,0.5l0.5,0.9c0.1,0.3-0.1,0.2-0.1,0c0,0,0.1,0.3,0.2,0.7c0.1,0.3,0.3,0.7,0.3,0.7l0,0c0.2,0.2,0.5,0.5,0.6,0.7
		c0,0.4-0.1-0.1-0.2,0c0,0,0.1,0.2,0.2,0.3c0.1,0.2,0.2,0.3,0.2,0.3c-0.1,0.4-0.5-0.2-0.6-0.7c-0.4,1,0.4,0.6,0.6,2.2l-0.4-0.7
		c-0.2,0.6,0.1,1.1,0.3,2c0-0.2-0.1-1.9,0.4-1.1c0,0.2,0.2,0.6,0.5,0.9c-0.2,0.1,0,0.5,0.3,1l-0.3,0.1c0.3,0.5,0.5,0.4,0.8,0.7
		c0.3,0.6,0.1,0.9,0,1.2c0.5,1,0-0.9,0.7,0.2c0.3,0.9,0.7,1.4,1.4,2.2c0.2,0.6-0.2,0-0.2,0.3l0.5,0.3c0.1,0.1,0,0.1-0.1,0.1
		c0.3,0.3,0.3-0.2,0.7,0.4c0.4-0.1,0.8,2,1.6,2.5c0.1,0.3-0.2,0.1-0.3,0.2c1,0.8,0.8,0.8,1.7,1.2c0,0,0.1,0.2,0.2,0.4
		c0.1,0.2,0.2,0.4,0.2,0.4c-0.3-0.7,0.5-0.3,1.1-0.1c-0.1-0.3-0.2-0.5-0.2-0.6c0,0,0.2,0.1,0.4,0.3c0.2,0.1,0.4,0.3,0.4,0.3
		c0.1,0.1-0.1,0.2-0.3,0.2c0.1,0,0.1,0,0.2,0c0.2,0.4,0,0.4-0.3,0.4c-0.1-0.2-0.1-0.3-0.2-0.5c-0.1,0-0.1,0-0.2,0c0,0-0.1,0-0.1,0
		c0,0,0,0,0,0.1c-0.2,0-0.3,0.1-0.4,0.2c0.1,0,0.2,0.1,0.3,0.2c-0.1,0-0.1,0-0.1,0.1c0,0.1,0.1,0.1,0.3,0.1l0,0.5l0.1-0.1
		c0,0,0.1,0.1,0.2,0.2c0.1,0.1,0.2,0.3,0.4,0.4c0.3,0.3,0.6,0.6,0.6,0.6c0.7,0.1,1.3,0.1,2.1,0c0.1,0,0.1,0,0.2,0
		c0.2,0.3-0.3,0-0.2,0.2c0.2,0,0.4,0,0.6,0.1c0.2,0.1,0.4,0.2,0.7,0.4c0,0,0,0,0,0.1l0,0c0,0,0,0,0,0c0,0,0,0,0,0.1
		c-0.4-0.5-1.2-0.1-2-0.5c0.4,0.2,0.3,0.4,0.2,0.4c0,0,0.4,0.1,0.7,0.1c0.4,0,0.7,0,0.7,0c0,0.3,0.3,0.3,0.7,0.5
		c-0.1-0.2,0-0.3,0.1-0.3c0.7,0.3,1.2,0.5,1.8,0.7c0.7,0.2,1.4,0.4,2.5,0.4L24,72.7c0.4,0,0.5,0.1,0.8,0.1c0.2-0.3-0.1-0.2-0.4-0.2
		c-0.3,0-0.6,0-0.4-0.3c0.3,0.3,1.1,0.2,1.8,0.1c0.7-0.2,1.3-0.4,1.7-0.1c0.6-0.3-0.3-0.3,0.3-0.5l0.2,0.1l0-0.3
		c0.4-0.1,0.7,0,0.8,0.1c-0.1,0-0.2,0.2-0.3,0.2c0.6,0,1.3-0.8,1.5-0.9c0,0-0.1,0.1-0.3,0.1c-0.1,0.1-0.3,0.1-0.3,0.1
		c1.3-1,2.9-2.1,3.9-3.5c0.1,0,0.1,0,0.2-0.1c0-0.1,0-0.3,0-0.5c0.3-0.4,0.5-0.5,0.8-0.7c-0.1,0.3-0.2,0.7-0.3,0.9
		c0.4-0.1,0.2,0.1,0.7-0.3c0.3,0-0.1,0.5-0.2,0.6c0,0,0.3-0.2,0.6-0.4c0.3-0.2,0.6-0.5,0.6-0.5c-0.3-0.3,0.6-1.2,0.3-1.4l-0.9,1.5
		c-0.2-0.3-0.1-1.2,0.4-2c0.1,0.1,0.6-0.3,0.5,0.1c0-0.1,0.1-0.2,0.1-0.2c0.1,0.2,0.1,0.5,0.2,0.6c0-0.2,0.5-1,0.6-1l-0.2,0.5
		c0.5-0.4,0.3-1.2,1-1.5c0.2-0.2,0.8-0.2,0.7-0.4c-0.3,0-0.6-0.2-0.9-0.5c0.5-0.4,0.7-0.9,0.9-1.4c0,0,0-0.1,0.1-0.1
		c0.1,0.3,0.1,0.8,0.4,0.7c-0.1-0.1,0-0.4,0-0.5c0.2-0.2,0.2,0.3,0.5-0.2c-0.3-0.4,0.7-1-0.1-0.5c0.2-0.6,0.4-0.5,0.7-1.1
		c-0.1,0-0.2-0.2-0.3-0.6c0.2-0.1,0.4-0.4,0.5-0.7c-0.1,0.1,0,0.1-0.1,0.3c0.3-0.3,0.2-1,0.7-1.3c-0.2-0.4,0.2-0.6,0.1-0.9
		c0.2-0.3,0.3-0.6,0.5-1c0,0,0.1-0.1,0.1-0.1c0,0.2-0.1,0.3-0.2,0.5c-0.2,0.4-0.4,0.9-0.4,1.3c0.3-0.2,0.2-1.4,0.5-0.8
		c-0.2-0.5,0-0.8,0.2-1.2c0,0,0.1,0,0.1,0.1c0-0.1,0-0.2,0-0.3c0.1-0.2,0.1-0.3,0.1-0.5c0.3-0.2-0.2,0.8,0.2,0.6
		c-0.1-0.1-0.1-0.4-0.1-0.7l0,0c0-0.2,0-0.5,0.1-0.7l0.2,0.6c0-0.8,0.7-1.2,0.7-1.9c-0.4,1.4-0.4,0.1-0.8,0.6
		c0.1-0.9,0.3-1.1,0.6-1.2c0.2-0.2,0.5-0.3,0.7-1.1C43.3,50.7,43,51,43,50.7c0.2-0.3,0.4-0.8,0.6-1c0.3-1.3-0.3,0.1-0.3-0.6
		c0.4-0.3,0-0.7,0-1.3l0.3,0.1c0.5-1.4-0.4-0.6,0-1.9c0,0,0.1,0.2,0.1,0.4c0.1,0.2,0.1,0.4,0.1,0.4s0-0.2,0-0.4c0-0.2,0-0.4,0-0.4
		l0.3,0.3c-0.1-0.9,0-1.1,0.2-1.8c-0.2,0.1-0.5-0.3-0.4-0.9c0.2-0.4,0.2,0.3,0.3-0.6c0.1,0.3,0.3,0.6,0,0.9c0.1,0.1,0.1,0.3,0.2,0.3
		c0.2-0.4,0.2-1.3,0.2-1.6c0,0.1,0,0.3-0.1,0.4c0,0-0.1-0.4-0.1-0.8c-0.1-0.4-0.1-0.8-0.1-0.8c0.1-0.2,0.2,0,0.2,0.2
		c0-0.3-0.1-0.5-0.1-1c0.2,0.2,0.4,0.2,0.5,0.8c0,0,0-0.4-0.1-0.7c-0.1-0.4-0.1-0.7-0.1-0.7c0.1-0.1,0.3-0.7,0.4-0.5
		C45.2,38.8,44.6,37.6,44.8,36.6z M41.3,19.5c-0.4-0.1-0.3-0.4-0.3-0.7C41,19,41.3,19.3,41.3,19.5z M32.2,5.2
		c-0.2-0.1-0.3-0.3-0.5-0.5C31.8,4.7,32,5,32.2,5.2z M20,4.6C20,4.6,20,4.6,20,4.6C20,4.6,20,4.6,20,4.6C20,4.6,20,4.6,20,4.6z
		 M7.8,18.7l-0.1,0.1C7.8,18.5,7.8,18.6,7.8,18.7z M5,20.2c0,0.2,0,0.3,0,0.5c0,0.1,0,0.2-0.1,0.2C4.8,20.7,4.9,20.5,5,20.2z
		 M3.7,31c0-0.1,0-0.2,0.1-0.4C3.8,30.8,3.8,30.8,3.7,31C3.8,30.9,3.8,30.9,3.7,31z M3.7,24.2C3.6,24.1,3.5,24,3.4,24
		c0-0.4,0.1-0.7,0.3-1c0.1,0,0.2,0.3,0.4,0C4,23.8,3.9,24,3.7,24.2z M5.9,55.6c0.4,0.1,0.3,0.3,0.4,0.7C6.1,56.2,5.8,55.8,5.9,55.6z
		 M15.5,69.5c0.2,0.1,0.3,0.2,0.5,0.4C15.9,69.9,15.7,69.7,15.5,69.5z M27.1,69.5c0.1-0.2,0.1-0.3,0.1-0.3c0,0.1,0,0.1,0,0.2
		C27.2,69.5,27.1,69.5,27.1,69.5z M34.3,63.4C34.3,63.4,34.3,63.4,34.3,63.4c-0.1-0.1,0.1-0.2,0.2-0.3
		C34.5,63.2,34.4,63.3,34.3,63.4z M36.9,62.1C36.9,62.1,36.9,62.1,36.9,62.1C36.9,62.1,36.9,62.1,36.9,62.1
		C36.9,62.1,36.9,62.1,36.9,62.1z M37.1,62.3c0.1,0,0.1,0,0.1,0.1C37.2,62.4,37.2,62.4,37.1,62.3z M38,60.7c0,0,0.1,0,0.1,0.1
		C38,60.8,38,60.8,38,60.7z M38,56.9l0.1-0.1C38,57.2,38,57.1,38,56.9z M38.1,60.8C38.1,60.8,38.1,60.8,38.1,60.8
		C38.1,60.9,38.1,60.9,38.1,60.8z M40.1,57.3c0-0.1,0-0.1,0-0.2c0,0,0-0.1,0.1-0.1C40.2,57.2,40.1,57.3,40.1,57.3z M41.1,48.6
		c0,0,0,0.1,0,0.1C41,49,41,48.9,41.1,48.6C41.1,48.6,41.1,48.6,41.1,48.6z M41.3,47.9c0-0.1,0-0.1,0-0.2c0,0,0.1,0,0.1,0
		C41.3,47.8,41.3,47.9,41.3,47.9z M41.9,41.9c-0.1,0.3-0.1,0.6-0.1,0.8c-0.1-0.4-0.2-0.9-0.2-1.3c-0.3,0.3,0.1,0.2-0.3,0.7
		c0.5-0.4,0,1.9,0.5,1.2c-0.4,0.5-0.2,0.9-0.6,1.5c0.1,0,0.2-0.2,0.1,0.4c0,0,0.1,0.1,0.1,0.2c0,0,0,0,0,0l0,0c0,0,0,0,0,0
		c0.1-0.1,0.1-0.2,0.2-0.3c0.1,0.2,0.2,0.5,0.2,0.9c0,0.2,0,0.4,0,0.6c0,0.1-0.1,0.2-0.1,0.2c0,0-0.1,0-0.1,0l0,0
		c-0.1,0.3-0.1,0.5-0.2,0.8c-0.1,0.1-0.2,0.1-0.2-0.3c0,0,0,0.2,0,0.4c0,0.2,0,0.4,0,0.4c-0.2,0.4-0.3,1-0.3,1.4c0,0.1,0,0.3,0,0.4
		c-0.5,1.4-1,2.8-1.6,4.1l0.5,0c0,0-0.1,0.2-0.2,0.4c-0.1,0.2-0.2,0.4-0.2,0.4c-0.2,0.1-0.4,0.1-0.2-0.5c-0.3,0.1-0.2,1-0.1,1.1
		c-0.6,1-0.2-0.7-0.4-0.4l-0.2,0.5l0.1-0.1c0,0.5,0.1,0.6-0.2,1.2c-0.3,0.3-0.3,0-0.4,0.2c0,0-0.1,0-0.1,0.2c0,0-0.1,0.2-0.2,0.4
		c-0.1,0.2-0.3,0.4-0.3,0.4l0.2-0.1c-0.1,0.2-0.2,0.3-0.3,0.5c-0.3,0.5-0.5,1.1-0.8,1.4l0.1,0.1c0,0.1-0.1,0.2-0.2,0.2
		c-0.5,0.8-1,1.5-1.1,1.6c-0.1,0.5-0.4,0.9-0.7,1.3c-0.5,0.2-0.9,0.6-1.2,1.1c0,0,0,0.1-0.1,0.1c-0.2,0.2-0.5,0.4-0.8,0.4
		c0.3,0,0,0.3-0.2,0.6c0,0,0,0-0.1,0c-0.1,0.2-0.3,0.3-0.5,0.4c0,0,0,0,0,0c0,0-0.1,0-0.1,0.1c-0.1,0-0.2,0-0.3,0.1
		c0.1,0,0.2,0,0.3,0c-0.1,0.1-0.4,0.3-0.5,0.5l-0.2-0.2c0,0,0,0,0,0c-0.3,0.1-0.1,0.3,0.1,0.4c-0.1,0.1-0.1,0.2-0.2,0.3
		c0,0-0.1,0.1-0.1,0.1c-0.4-0.2-0.5,0.5-1,0.2c0,0.2-0.3,0.4-0.6,0.6c-0.2,0.1-0.3,0.3-0.4,0.5c-0.1,0.1-0.3,0.2-0.4,0.3
		c-0.2,0.1-0.3,0.1-0.4,0.3l-0.3-0.3c0,0-0.1,0.2-0.2,0.4c-0.1,0.2-0.2,0.4-0.2,0.4c-0.5-0.1-0.7-0.2-0.4-0.6
		c-0.8,0.8-0.7,0.5-1.3,1.1l0-0.3c-0.3,0.1-0.7,0.5-0.9,0.4c-0.4-0.2-1.2-0.1-2.1,0c-0.9,0.1-2,0-2.8-0.3c0,0.1,0,0.1,0,0.1
		l-0.6-0.2c0,0-0.1,0-0.1,0l-0.3-0.1c-0.1-0.1-0.1-0.2,0.1-0.2c-0.8-0.1-1.1-0.7-1.7-0.6c0-0.2,0.2-0.1,0.2-0.3
		c-0.1,0-0.3,0-0.3-0.1c0-0.1,0.2,0,0.3-0.1c-0.7-0.4-1-0.1-1.3,0.3c-0.3-0.5-0.5-0.6-0.9-0.7c0-0.3-0.2-0.6,0.3-0.2
		c-0.1-0.1-0.5-0.5-0.8-0.9c-0.3-0.4-0.7-0.7-0.8-0.6c0-0.2-0.3-0.4-0.4-0.5c-0.5-0.7-0.5-0.8-1-1.5l0.1,0.2c-0.5,0-0.8-0.9-1.2-1.4
		l0,0c-0.6-1.5-0.5-0.5-1-2.1L10.2,61c-0.5,0.2-0.4-1.4-1-2.1l0,0.4c-0.4-0.4,0-1.6-0.1-2.1c0-0.1,0.1,0.1,0.2,0.2
		c-0.2-1.3-0.4,0-0.8-0.9c0.1-0.2,0.5,0,0.3-0.6c0-0.3-1.2-1.5-1.2-2.5c-0.1,0.2-0.1,0.5-0.4,0.1c-0.3-0.6-0.1-1.9-0.7-2.4
		c0-0.1,0-0.1,0.1-0.1c-0.3-0.5-0.7-1.6-1-1.9c0.3-0.3,0-1.1-0.2-1.8c-0.3-0.7-0.6-1.4-0.2-1.4c0,0,0.3-0.1,0.2-0.5
		c-0.1-0.4-0.2-0.8-0.2-0.8l0.1,0c-0.1-1-0.4-1.4-0.6-1.7c0-0.2,0.1-0.1,0.2-0.1c0-1.5-0.1-1.6-0.6-2.9l0.3-0.1
		c-0.1-0.2,0-0.7,0-1.4c0-0.3,0-0.7,0-1.1c0-0.4,0-0.8-0.1-1.1c0,0,0.1,0.1,0.1,0.2c-0.2-0.8,0-1.8,0.2-2.6c0.1-0.8,0.2-1.5-0.2-1.9
		c0,0,0-0.3-0.1-0.6c0-0.3-0.1-0.6-0.1-0.6c-0.1,0.7-0.2,0.6-0.3,0.4c0-0.1,0.1-0.1,0.2-0.2C3.9,31.2,4,30.6,4,30.2
		c0.1-0.1,0.2-0.1,0.2,0.2l-0.1,0.1c0.2,0.2,0.3-0.2,0.4-0.7c0.1-0.4,0.2-0.9,0.3-0.8c0.4-2.7,1.2-5,2-7.2l-0.4,0
		c0,0,0.1-0.2,0.1-0.4C6.6,21.2,6.7,21,6.7,21c0.2-0.2,0.4-0.1,0.2,0.5c0.3-0.2,0.2-1,0.1-1.1c0.5-1,0.3,0.7,0.4,0.4l0.1-0.5
		l-0.1,0.1c0-0.5-0.2-0.6,0.1-1.2c0.2-0.4,0.3-0.1,0.4-0.2c0,0,0.1,0,0.1-0.2c0,0,0.1-0.2,0.2-0.5c0.1-0.2,0.2-0.4,0.2-0.4L8,17.9
		c0.1-0.5,0.4-0.9-0.1-0.7c0.2-0.1,0.4-0.3,0.6-0.6c0.2-0.3,0.5-0.7,0.7-1.1c0.4-0.8,0.9-1.6,1-1.7c0.1-0.7,0.5-1.2,0.9-1.8
		c-0.2,0.1-0.5-0.1-0.1-0.6c0.4,0.8,0.9-0.7,1.7-0.6c-0.5,0,0.7-1.1,0.5-1.3c0,0,0.1-0.1,0.1-0.1c0.1,0.1,0.1,0.2,0.3,0.1
		c0.3-0.6,0.9-1.1,1.4-1.6c0,0,0,0,0,0c0,0,0,0,0,0c0,0,0.1,0,0.1,0c0.1,0,0.2,0,0.4,0c-0.1,0-0.2,0-0.3,0c0.1-0.1,0.3-0.2,0.5-0.4
		c0,0,0.1,0,0.1-0.1L16,7.6c0,0,0,0,0.1,0c0.3,0,0.1-0.2-0.1-0.3c0.1-0.1,0.3-0.2,0.4-0.3c0.3,0,0.5-0.5,0.8-0.2
		c0-0.2,0.3-0.4,0.6-0.6c0.3-0.2,0.6-0.4,0.5-0.7c0,0.1,0.1,0.1,0,0.1c0.3-0.1,0.6-0.1,0.8-0.4l0.3,0.3c0,0,0.1-0.2,0.2-0.4
		c0.1-0.2,0.2-0.4,0.2-0.4c0.5,0.1,0.7,0.2,0.4,0.6c0.8-0.7,0.7-0.4,1.4-1l0,0.3c0.2,0,0.4-0.2,0.6-0.3l0.4,0
		c0.3,0.1,0.8,0.1,1.4,0.1L27,4.6c0.3,0.1,0.6,0.2,0.9,0.3c-0.1-0.4,0-0.3,0.3-0.1c0.2,0.2,0.5,0.4,0.6,0.1c0.1,0.2,0.3,0.4,0,0.4
		c0.9,0.1,1.1,0.8,1.8,0.7c0,0.2-0.2,0.1-0.2,0.3c0.1,0,0.3,0,0.3,0.2c0,0.1-0.2,0-0.3,0c0.7,0.5,1,0.2,1.3-0.2
		C31.9,6.8,32.1,7,32.5,7c0,0.3,0.2,0.6-0.3,0.2c0.1,0.1,0.5,0.6,0.8,1c0.3,0.4,0.6,0.8,0.8,0.7c0,0.2,0.3,0.5,0.4,0.5
		c0.5,0.7,0.5,0.8,1,1.5l-0.1-0.2c0.5,0,0.5,0.6,0.8,1.2l0,0c0.5,1.6,0.5,0.5,0.9,2.1l0.2-0.2c0.5-0.1,0.4,1.4,0.9,2.2l0-0.4
		c0.4,0.4-0.1,1.6,0,2.1c0,0.1-0.1-0.1-0.2-0.3c0.2,1.3,0.4,0,0.8,0.9c-0.1,0.2-0.5,0-0.3,0.6c0,0.3,1.2,1.6,1.2,2.6
		c0.1-0.2,0.1-0.5,0.4,0c0.3,0.7,0.1,2,0.6,2.5c0,0.1,0,0.1-0.1,0.1c0.3,0.5,0.6,1.7,0.9,1.9c-0.4,0.3-0.1,1.1,0.2,1.9
		c0.3,0.7,0.5,1.4,0.1,1.5c0,0,0.1,0.4,0.2,0.8c0.1,0.4,0.1,0.8,0.1,0.8l-0.1,0c0.1,1,0.3,1.4,0.6,1.8c0,0.2-0.1,0.1-0.2,0
		c0,1.5,0,1.6,0.5,3l-0.3,0.1c0.1,0.2,0,0.7-0.1,1.4c0,0.3-0.1,0.7-0.1,1.1c0,0.4,0,0.8,0.1,1.2c0,0-0.1-0.1-0.1-0.2
		C42.3,40.1,42,41.1,41.9,41.9z M42.3,45.4L42.3,45.4c-0.1-0.2-0.2-0.1-0.3,0.1c-0.1-0.5-0.2-1-0.1-1.6l0.1,0c0,0.1,0,0.3,0,0.4
		c0,0.3,0,0.6,0,0.6c0.3-1.3,0.4,0.4,0.6-0.1C42.7,45.4,42.3,46.1,42.3,45.4z"/>
	<path class="st0" d="M14.5,4.1C14.6,4.1,14.6,4.1,14.5,4.1C14.6,4,14.6,4,14.5,4.1z"/>
</g>
</svg>
